<svg version="1.1" xmlns="http://www.w3.org/2000/svg" xmlns:xlink="http://www.w3.org/1999/xlink" width="870.365234375" height="656"><defs/><g><text fill="#eeeeee" stroke="none" font-family="Arial" font-size="24px" font-style="normal" font-weight="normal" text-decoration="none" x="0" y="0">UNREGISTERED</text><text fill="#eeeeee" stroke="none" font-family="Arial" font-size="24px" font-style="normal" font-weight="normal" text-decoration="none" x="0" y="30">UNREGISTERED</text><text fill="#eeeeee" stroke="none" font-family="Arial" font-size="24px" font-style="normal" font-weight="normal" text-decoration="none" x="0" y="60">UNREGISTERED</text><text fill="#eeeeee" stroke="none" font-family="Arial" font-size="24px" font-style="normal" font-weight="normal" text-decoration="none" x="0" y="90">UNREGISTERED</text><text fill="#eeeeee" stroke="none" font-family="Arial" font-size="24px" font-style="normal" font-weight="normal" text-decoration="none" x="0" y="120">UNREGISTERED</text><text fill="#eeeeee" stroke="none" font-family="Arial" font-size="24px" font-style="normal" font-weight="normal" text-decoration="none" x="0" y="150">UNREGISTERED</text><text fill="#eeeeee" stroke="none" font-family="Arial" font-size="24px" font-style="normal" font-weight="normal" text-decoration="none" x="0" y="180">UNREGISTERED</text><text fill="#eeeeee" stroke="none" font-family="Arial" font-size="24px" font-style="normal" font-weight="normal" text-decoration="none" x="0" y="210">UNREGISTERED</text><text fill="#eeeeee" stroke="none" font-family="Arial" font-size="24px" font-style="normal" font-weight="normal" text-decoration="none" x="0" y="240">UNREGISTERED</text><text fill="#eeeeee" stroke="none" font-family="Arial" font-size="24px" font-style="normal" font-weight="normal" text-decoration="none" x="0" y="270">UNREGISTERED</text><text fill="#eeeeee" stroke="none" font-family="Arial" font-size="24px" font-style="normal" font-weight="normal" text-decoration="none" x="0" y="300">UNREGISTERED</text><text fill="#eeeeee" stroke="none" font-family="Arial" font-size="24px" font-style="normal" font-weight="normal" text-decoration="none" x="0" y="330">UNREGISTERED</text><text fill="#eeeeee" stroke="none" font-family="Arial" font-size="24px" font-style="normal" font-weight="normal" text-decoration="none" x="0" y="360">UNREGISTERED</text><text fill="#eeeeee" stroke="none" font-family="Arial" font-size="24px" font-style="normal" font-weight="normal" text-decoration="none" x="0" y="390">UNREGISTERED</text><text fill="#eeeeee" stroke="none" font-family="Arial" font-size="24px" font-style="normal" font-weight="normal" text-decoration="none" x="0" y="420">UNREGISTERED</text><text fill="#eeeeee" stroke="none" font-family="Arial" font-size="24px" font-style="normal" font-weight="normal" text-decoration="none" x="0" y="450">UNREGISTERED</text><text fill="#eeeeee" stroke="none" font-family="Arial" font-size="24px" font-style="normal" font-weight="normal" text-decoration="none" x="0" y="480">UNREGISTERED</text><text fill="#eeeeee" stroke="none" font-family="Arial" font-size="24px" font-style="normal" font-weight="normal" text-decoration="none" x="0" y="510">UNREGISTERED</text><text fill="#eeeeee" stroke="none" font-family="Arial" font-size="24px" font-style="normal" font-weight="normal" text-decoration="none" x="0" y="540">UNREGISTERED</text><text fill="#eeeeee" stroke="none" font-family="Arial" font-size="24px" font-style="normal" font-weight="normal" text-decoration="none" x="0" y="570">UNREGISTERED</text><text fill="#eeeeee" stroke="none" font-family="Arial" font-size="24px" font-style="normal" font-weight="normal" text-decoration="none" x="0" y="600">UNREGISTERED</text><text fill="#eeeeee" stroke="none" font-family="Arial" font-size="24px" font-style="normal" font-weight="normal" text-decoration="none" x="0" y="630">UNREGISTERED</text><text fill="#eeeeee" stroke="none" font-family="Arial" font-size="24px" font-style="normal" font-weight="normal" text-decoration="none" x="200" y="0">UNREGISTERED</text><text fill="#eeeeee" stroke="none" font-family="Arial" font-size="24px" font-style="normal" font-weight="normal" text-decoration="none" x="200" y="30">UNREGISTERED</text><text fill="#eeeeee" stroke="none" font-family="Arial" font-size="24px" font-style="normal" font-weight="normal" text-decoration="none" x="200" y="60">UNREGISTERED</text><text fill="#eeeeee" stroke="none" font-family="Arial" font-size="24px" font-style="normal" font-weight="normal" text-decoration="none" x="200" y="90">UNREGISTERED</text><text fill="#eeeeee" stroke="none" font-family="Arial" font-size="24px" font-style="normal" font-weight="normal" text-decoration="none" x="200" y="120">UNREGISTERED</text><text fill="#eeeeee" stroke="none" font-family="Arial" font-size="24px" font-style="normal" font-weight="normal" text-decoration="none" x="200" y="150">UNREGISTERED</text><text fill="#eeeeee" stroke="none" font-family="Arial" font-size="24px" font-style="normal" font-weight="normal" text-decoration="none" x="200" y="180">UNREGISTERED</text><text fill="#eeeeee" stroke="none" font-family="Arial" font-size="24px" font-style="normal" font-weight="normal" text-decoration="none" x="200" y="210">UNREGISTERED</text><text fill="#eeeeee" stroke="none" font-family="Arial" font-size="24px" font-style="normal" font-weight="normal" text-decoration="none" x="200" y="240">UNREGISTERED</text><text fill="#eeeeee" stroke="none" font-family="Arial" font-size="24px" font-style="normal" font-weight="normal" text-decoration="none" x="200" y="270">UNREGISTERED</text><text fill="#eeeeee" stroke="none" font-family="Arial" font-size="24px" font-style="normal" font-weight="normal" text-decoration="none" x="200" y="300">UNREGISTERED</text><text fill="#eeeeee" stroke="none" font-family="Arial" font-size="24px" font-style="normal" font-weight="normal" text-decoration="none" x="200" y="330">UNREGISTERED</text><text fill="#eeeeee" stroke="none" font-family="Arial" font-size="24px" font-style="normal" font-weight="normal" text-decoration="none" x="200" y="360">UNREGISTERED</text><text fill="#eeeeee" stroke="none" font-family="Arial" font-size="24px" font-style="normal" font-weight="normal" text-decoration="none" x="200" y="390">UNREGISTERED</text><text fill="#eeeeee" stroke="none" font-family="Arial" font-size="24px" font-style="normal" font-weight="normal" text-decoration="none" x="200" y="420">UNREGISTERED</text><text fill="#eeeeee" stroke="none" font-family="Arial" font-size="24px" font-style="normal" font-weight="normal" text-decoration="none" x="200" y="450">UNREGISTERED</text><text fill="#eeeeee" stroke="none" font-family="Arial" font-size="24px" font-style="normal" font-weight="normal" text-decoration="none" x="200" y="480">UNREGISTERED</text><text fill="#eeeeee" stroke="none" font-family="Arial" font-size="24px" font-style="normal" font-weight="normal" text-decoration="none" x="200" y="510">UNREGISTERED</text><text fill="#eeeeee" stroke="none" font-family="Arial" font-size="24px" font-style="normal" font-weight="normal" text-decoration="none" x="200" y="540">UNREGISTERED</text><text fill="#eeeeee" stroke="none" font-family="Arial" font-size="24px" font-style="normal" font-weight="normal" text-decoration="none" x="200" y="570">UNREGISTERED</text><text fill="#eeeeee" stroke="none" font-family="Arial" font-size="24px" font-style="normal" font-weight="normal" text-decoration="none" x="200" y="600">UNREGISTERED</text><text fill="#eeeeee" stroke="none" font-family="Arial" font-size="24px" font-style="normal" font-weight="normal" text-decoration="none" x="200" y="630">UNREGISTERED</text><text fill="#eeeeee" stroke="none" font-family="Arial" font-size="24px" font-style="normal" font-weight="normal" text-decoration="none" x="400" y="0">UNREGISTERED</text><text fill="#eeeeee" stroke="none" font-family="Arial" font-size="24px" font-style="normal" font-weight="normal" text-decoration="none" x="400" y="30">UNREGISTERED</text><text fill="#eeeeee" stroke="none" font-family="Arial" font-size="24px" font-style="normal" font-weight="normal" text-decoration="none" x="400" y="60">UNREGISTERED</text><text fill="#eeeeee" stroke="none" font-family="Arial" font-size="24px" font-style="normal" font-weight="normal" text-decoration="none" x="400" y="90">UNREGISTERED</text><text fill="#eeeeee" stroke="none" font-family="Arial" font-size="24px" font-style="normal" font-weight="normal" text-decoration="none" x="400" y="120">UNREGISTERED</text><text fill="#eeeeee" stroke="none" font-family="Arial" font-size="24px" font-style="normal" font-weight="normal" text-decoration="none" x="400" y="150">UNREGISTERED</text><text fill="#eeeeee" stroke="none" font-family="Arial" font-size="24px" font-style="normal" font-weight="normal" text-decoration="none" x="400" y="180">UNREGISTERED</text><text fill="#eeeeee" stroke="none" font-family="Arial" font-size="24px" font-style="normal" font-weight="normal" text-decoration="none" x="400" y="210">UNREGISTERED</text><text fill="#eeeeee" stroke="none" font-family="Arial" font-size="24px" font-style="normal" font-weight="normal" text-decoration="none" x="400" y="240">UNREGISTERED</text><text fill="#eeeeee" stroke="none" font-family="Arial" font-size="24px" font-style="normal" font-weight="normal" text-decoration="none" x="400" y="270">UNREGISTERED</text><text fill="#eeeeee" stroke="none" font-family="Arial" font-size="24px" font-style="normal" font-weight="normal" text-decoration="none" x="400" y="300">UNREGISTERED</text><text fill="#eeeeee" stroke="none" font-family="Arial" font-size="24px" font-style="normal" font-weight="normal" text-decoration="none" x="400" y="330">UNREGISTERED</text><text fill="#eeeeee" stroke="none" font-family="Arial" font-size="24px" font-style="normal" font-weight="normal" text-decoration="none" x="400" y="360">UNREGISTERED</text><text fill="#eeeeee" stroke="none" font-family="Arial" font-size="24px" font-style="normal" font-weight="normal" text-decoration="none" x="400" y="390">UNREGISTERED</text><text fill="#eeeeee" stroke="none" font-family="Arial" font-size="24px" font-style="normal" font-weight="normal" text-decoration="none" x="400" y="420">UNREGISTERED</text><text fill="#eeeeee" stroke="none" font-family="Arial" font-size="24px" font-style="normal" font-weight="normal" text-decoration="none" x="400" y="450">UNREGISTERED</text><text fill="#eeeeee" stroke="none" font-family="Arial" font-size="24px" font-style="normal" font-weight="normal" text-decoration="none" x="400" y="480">UNREGISTERED</text><text fill="#eeeeee" stroke="none" font-family="Arial" font-size="24px" font-style="normal" font-weight="normal" text-decoration="none" x="400" y="510">UNREGISTERED</text><text fill="#eeeeee" stroke="none" font-family="Arial" font-size="24px" font-style="normal" font-weight="normal" text-decoration="none" x="400" y="540">UNREGISTERED</text><text fill="#eeeeee" stroke="none" font-family="Arial" font-size="24px" font-style="normal" font-weight="normal" text-decoration="none" x="400" y="570">UNREGISTERED</text><text fill="#eeeeee" stroke="none" font-family="Arial" font-size="24px" font-style="normal" font-weight="normal" text-decoration="none" x="400" y="600">UNREGISTERED</text><text fill="#eeeeee" stroke="none" font-family="Arial" font-size="24px" font-style="normal" font-weight="normal" text-decoration="none" x="400" y="630">UNREGISTERED</text><text fill="#eeeeee" stroke="none" font-family="Arial" font-size="24px" font-style="normal" font-weight="normal" text-decoration="none" x="600" y="0">UNREGISTERED</text><text fill="#eeeeee" stroke="none" font-family="Arial" font-size="24px" font-style="normal" font-weight="normal" text-decoration="none" x="600" y="30">UNREGISTERED</text><text fill="#eeeeee" stroke="none" font-family="Arial" font-size="24px" font-style="normal" font-weight="normal" text-decoration="none" x="600" y="60">UNREGISTERED</text><text fill="#eeeeee" stroke="none" font-family="Arial" font-size="24px" font-style="normal" font-weight="normal" text-decoration="none" x="600" y="90">UNREGISTERED</text><text fill="#eeeeee" stroke="none" font-family="Arial" font-size="24px" font-style="normal" font-weight="normal" text-decoration="none" x="600" y="120">UNREGISTERED</text><text fill="#eeeeee" stroke="none" font-family="Arial" font-size="24px" font-style="normal" font-weight="normal" text-decoration="none" x="600" y="150">UNREGISTERED</text><text fill="#eeeeee" stroke="none" font-family="Arial" font-size="24px" font-style="normal" font-weight="normal" text-decoration="none" x="600" y="180">UNREGISTERED</text><text fill="#eeeeee" stroke="none" font-family="Arial" font-size="24px" font-style="normal" font-weight="normal" text-decoration="none" x="600" y="210">UNREGISTERED</text><text fill="#eeeeee" stroke="none" font-family="Arial" font-size="24px" font-style="normal" font-weight="normal" text-decoration="none" x="600" y="240">UNREGISTERED</text><text fill="#eeeeee" stroke="none" font-family="Arial" font-size="24px" font-style="normal" font-weight="normal" text-decoration="none" x="600" y="270">UNREGISTERED</text><text fill="#eeeeee" stroke="none" font-family="Arial" font-size="24px" font-style="normal" font-weight="normal" text-decoration="none" x="600" y="300">UNREGISTERED</text><text fill="#eeeeee" stroke="none" font-family="Arial" font-size="24px" font-style="normal" font-weight="normal" text-decoration="none" x="600" y="330">UNREGISTERED</text><text fill="#eeeeee" stroke="none" font-family="Arial" font-size="24px" font-style="normal" font-weight="normal" text-decoration="none" x="600" y="360">UNREGISTERED</text><text fill="#eeeeee" stroke="none" font-family="Arial" font-size="24px" font-style="normal" font-weight="normal" text-decoration="none" x="600" y="390">UNREGISTERED</text><text fill="#eeeeee" stroke="none" font-family="Arial" font-size="24px" font-style="normal" font-weight="normal" text-decoration="none" x="600" y="420">UNREGISTERED</text><text fill="#eeeeee" stroke="none" font-family="Arial" font-size="24px" font-style="normal" font-weight="normal" text-decoration="none" x="600" y="450">UNREGISTERED</text><text fill="#eeeeee" stroke="none" font-family="Arial" font-size="24px" font-style="normal" font-weight="normal" text-decoration="none" x="600" y="480">UNREGISTERED</text><text fill="#eeeeee" stroke="none" font-family="Arial" font-size="24px" font-style="normal" font-weight="normal" text-decoration="none" x="600" y="510">UNREGISTERED</text><text fill="#eeeeee" stroke="none" font-family="Arial" font-size="24px" font-style="normal" font-weight="normal" text-decoration="none" x="600" y="540">UNREGISTERED</text><text fill="#eeeeee" stroke="none" font-family="Arial" font-size="24px" font-style="normal" font-weight="normal" text-decoration="none" x="600" y="570">UNREGISTERED</text><text fill="#eeeeee" stroke="none" font-family="Arial" font-size="24px" font-style="normal" font-weight="normal" text-decoration="none" x="600" y="600">UNREGISTERED</text><text fill="#eeeeee" stroke="none" font-family="Arial" font-size="24px" font-style="normal" font-weight="normal" text-decoration="none" x="600" y="630">UNREGISTERED</text><text fill="#eeeeee" stroke="none" font-family="Arial" font-size="24px" font-style="normal" font-weight="normal" text-decoration="none" x="800" y="0">UNREGISTERED</text><text fill="#eeeeee" stroke="none" font-family="Arial" font-size="24px" font-style="normal" font-weight="normal" text-decoration="none" x="800" y="30">UNREGISTERED</text><text fill="#eeeeee" stroke="none" font-family="Arial" font-size="24px" font-style="normal" font-weight="normal" text-decoration="none" x="800" y="60">UNREGISTERED</text><text fill="#eeeeee" stroke="none" font-family="Arial" font-size="24px" font-style="normal" font-weight="normal" text-decoration="none" x="800" y="90">UNREGISTERED</text><text fill="#eeeeee" stroke="none" font-family="Arial" font-size="24px" font-style="normal" font-weight="normal" text-decoration="none" x="800" y="120">UNREGISTERED</text><text fill="#eeeeee" stroke="none" font-family="Arial" font-size="24px" font-style="normal" font-weight="normal" text-decoration="none" x="800" y="150">UNREGISTERED</text><text fill="#eeeeee" stroke="none" font-family="Arial" font-size="24px" font-style="normal" font-weight="normal" text-decoration="none" x="800" y="180">UNREGISTERED</text><text fill="#eeeeee" stroke="none" font-family="Arial" font-size="24px" font-style="normal" font-weight="normal" text-decoration="none" x="800" y="210">UNREGISTERED</text><text fill="#eeeeee" stroke="none" font-family="Arial" font-size="24px" font-style="normal" font-weight="normal" text-decoration="none" x="800" y="240">UNREGISTERED</text><text fill="#eeeeee" stroke="none" font-family="Arial" font-size="24px" font-style="normal" font-weight="normal" text-decoration="none" x="800" y="270">UNREGISTERED</text><text fill="#eeeeee" stroke="none" font-family="Arial" font-size="24px" font-style="normal" font-weight="normal" text-decoration="none" x="800" y="300">UNREGISTERED</text><text fill="#eeeeee" stroke="none" font-family="Arial" font-size="24px" font-style="normal" font-weight="normal" text-decoration="none" x="800" y="330">UNREGISTERED</text><text fill="#eeeeee" stroke="none" font-family="Arial" font-size="24px" font-style="normal" font-weight="normal" text-decoration="none" x="800" y="360">UNREGISTERED</text><text fill="#eeeeee" stroke="none" font-family="Arial" font-size="24px" font-style="normal" font-weight="normal" text-decoration="none" x="800" y="390">UNREGISTERED</text><text fill="#eeeeee" stroke="none" font-family="Arial" font-size="24px" font-style="normal" font-weight="normal" text-decoration="none" x="800" y="420">UNREGISTERED</text><text fill="#eeeeee" stroke="none" font-family="Arial" font-size="24px" font-style="normal" font-weight="normal" text-decoration="none" x="800" y="450">UNREGISTERED</text><text fill="#eeeeee" stroke="none" font-family="Arial" font-size="24px" font-style="normal" font-weight="normal" text-decoration="none" x="800" y="480">UNREGISTERED</text><text fill="#eeeeee" stroke="none" font-family="Arial" font-size="24px" font-style="normal" font-weight="normal" text-decoration="none" x="800" y="510">UNREGISTERED</text><text fill="#eeeeee" stroke="none" font-family="Arial" font-size="24px" font-style="normal" font-weight="normal" text-decoration="none" x="800" y="540">UNREGISTERED</text><text fill="#eeeeee" stroke="none" font-family="Arial" font-size="24px" font-style="normal" font-weight="normal" text-decoration="none" x="800" y="570">UNREGISTERED</text><text fill="#eeeeee" stroke="none" font-family="Arial" font-size="24px" font-style="normal" font-weight="normal" text-decoration="none" x="800" y="600">UNREGISTERED</text><text fill="#eeeeee" stroke="none" font-family="Arial" font-size="24px" font-style="normal" font-weight="normal" text-decoration="none" x="800" y="630">UNREGISTERED</text><g transform="translate(-246,-38) scale(1,1)"><rect fill="#C0C0C0" stroke="none" x="671" y="303" width="159.6689453125" height="250" opacity="0.2"/></g><g transform="translate(-246,-38) scale(1,1)"><rect fill="#ffffff" stroke="none" x="664" y="296" width="159.6689453125" height="250"/></g><g transform="translate(-246,-38) scale(1,1)"><path fill="none" stroke="#000000" d="M 664 296 L 823.6689453125 296 L 823.6689453125 546 L 664 546 L 664 296 Z Z" stroke-miterlimit="10"/></g><g transform="translate(-246,-38) scale(1,1)"><path fill="none" stroke="#000000" d="M 664 321 L 823.6689453125 321" stroke-miterlimit="10"/></g><g transform="translate(-246,-38) scale(1,1)"><path fill="none" stroke="#000000" d="M 664 449 L 823.6689453125 449" stroke-miterlimit="10"/></g><g transform="translate(-246,-38) scale(1,1)"><g><path fill="none" stroke="none"/><text fill="#000000" stroke="none" font-family="Arial" font-size="13px" font-style="normal" font-weight="bold" text-decoration="none" x="727.219482421875" y="313.7099609375">Drink</text></g></g><g transform="translate(-246,-38) scale(1,1)"><g><path fill="none" stroke="none"/><text fill="#000000" stroke="none" font-family="Arial" font-size="13px" font-style="normal" font-weight="normal" text-decoration="none" x="669" y="336.7099609375">-name: String</text></g></g><g transform="translate(-246,-38) scale(1,1)"><g><path fill="none" stroke="none"/><text fill="#000000" stroke="none" font-family="Arial" font-size="13px" font-style="normal" font-weight="normal" text-decoration="none" x="669" y="351.7099609375">-picture: String</text></g></g><g transform="translate(-246,-38) scale(1,1)"><g><path fill="none" stroke="none"/><text fill="#000000" stroke="none" font-family="Arial" font-size="13px" font-style="normal" font-weight="normal" text-decoration="none" x="669" y="366.7099609375">-time: Number</text></g></g><g transform="translate(-246,-38) scale(1,1)"><g><path fill="none" stroke="none"/><text fill="#000000" stroke="none" font-family="Arial" font-size="13px" font-style="normal" font-weight="normal" text-decoration="none" x="669" y="381.7099609375">-preparation: String</text></g></g><g transform="translate(-246,-38) scale(1,1)"><g><path fill="none" stroke="none"/><text fill="#000000" stroke="none" font-family="Arial" font-size="13px" font-style="normal" font-weight="normal" text-decoration="none" x="669" y="396.7099609375">-createdDate: Date</text></g></g><g transform="translate(-246,-38) scale(1,1)"><g><path fill="none" stroke="none"/><text fill="#000000" stroke="none" font-family="Arial" font-size="13px" font-style="normal" font-weight="normal" text-decoration="none" x="669" y="411.7099609375">-likes: Number</text></g></g><g transform="translate(-246,-38) scale(1,1)"><g><path fill="none" stroke="none"/><text fill="#000000" stroke="none" font-family="Arial" font-size="13px" font-style="normal" font-weight="normal" text-decoration="none" x="669" y="426.7099609375">-isAlcoholic: Boolean</text></g></g><g transform="translate(-246,-38) scale(1,1)"><g><path fill="none" stroke="none"/><text fill="#000000" stroke="none" font-family="Arial" font-size="13px" font-style="normal" font-weight="normal" text-decoration="none" x="669" y="441.7099609375">-isVerified: Boolean</text></g></g><g transform="translate(-246,-38) scale(1,1)"><g><path fill="none" stroke="none"/><text fill="#000000" stroke="none" font-family="Arial" font-size="13px" font-style="normal" font-weight="normal" text-decoration="none" x="669" y="464.7099609375">+create()</text></g></g><g transform="translate(-246,-38) scale(1,1)"><g><path fill="none" stroke="none"/><text fill="#000000" stroke="none" font-family="Arial" font-size="13px" font-style="normal" font-weight="normal" text-decoration="none" x="669" y="479.7099609375">+update()</text></g></g><g transform="translate(-246,-38) scale(1,1)"><g><path fill="none" stroke="none"/><text fill="#000000" stroke="none" font-family="Arial" font-size="13px" font-style="normal" font-weight="normal" text-decoration="none" x="669" y="494.7099609375">+delete()</text></g></g><g transform="translate(-246,-38) scale(1,1)"><g><path fill="none" stroke="none"/><text fill="#000000" stroke="none" font-family="Arial" font-size="13px" font-style="normal" font-weight="normal" text-decoration="none" x="669" y="509.7099609375">+getAllFilter()</text></g></g><g transform="translate(-246,-38) scale(1,1)"><g><path fill="none" stroke="none"/><text fill="#000000" stroke="none" font-family="Arial" font-size="13px" font-style="normal" font-weight="normal" text-decoration="none" x="669" y="524.7099609375">+getSimilarDrinks()</text></g></g><g transform="translate(-246,-38) scale(1,1)"><g><path fill="none" stroke="none"/><text fill="#000000" stroke="none" font-family="Arial" font-size="13px" font-style="normal" font-weight="normal" text-decoration="none" x="669" y="539.7099609375">+approveDrink()</text></g></g><g transform="translate(-246,-38) scale(1,1)"><rect fill="#C0C0C0" stroke="none" x="943" y="591" width="110.14990234375" height="100" opacity="0.2"/></g><g transform="translate(-246,-38) scale(1,1)"><rect fill="#ffffff" stroke="none" x="936" y="584" width="110.14990234375" height="100"/></g><g transform="translate(-246,-38) scale(1,1)"><path fill="none" stroke="#000000" d="M 936 584 L 1046.14990234375 584 L 1046.14990234375 684 L 936 684 L 936 584 Z Z" stroke-miterlimit="10"/></g><g transform="translate(-246,-38) scale(1,1)"><path fill="none" stroke="#000000" d="M 936 609 L 1046.14990234375 609" stroke-miterlimit="10"/></g><g transform="translate(-246,-38) scale(1,1)"><path fill="none" stroke="#000000" d="M 936 647 L 1046.14990234375 647" stroke-miterlimit="10"/></g><g transform="translate(-246,-38) scale(1,1)"><g><path fill="none" stroke="none"/><text fill="#000000" stroke="none" font-family="Arial" font-size="13px" font-style="normal" font-weight="bold" text-decoration="none" x="959.6572265625" y="601.7099609375">Ingredient</text></g></g><g transform="translate(-246,-38) scale(1,1)"><g><path fill="none" stroke="none"/><text fill="#000000" stroke="none" font-family="Arial" font-size="13px" font-style="normal" font-weight="normal" text-decoration="none" x="941" y="624.7099609375">-name: String</text></g></g><g transform="translate(-246,-38) scale(1,1)"><g><path fill="none" stroke="none"/><text fill="#000000" stroke="none" font-family="Arial" font-size="13px" font-style="normal" font-weight="normal" text-decoration="none" x="941" y="639.7099609375">-amount: Number</text></g></g><g transform="translate(-246,-38) scale(1,1)"><g><path fill="none" stroke="none"/><text fill="#000000" stroke="none" font-family="Arial" font-size="13px" font-style="normal" font-weight="normal" text-decoration="none" x="941" y="662.7099609375">+create()</text></g></g><g transform="translate(-246,-38) scale(1,1)"><g><path fill="none" stroke="none"/><text fill="#000000" stroke="none" font-family="Arial" font-size="13px" font-style="normal" font-weight="normal" text-decoration="none" x="941" y="677.7099609375">+update()</text></g></g><g transform="translate(-246,-38) scale(1,1)"><path fill="none" stroke="#000000" d="M 743 546 L 743 632 L 936 632" stroke-miterlimit="10"/></g><g transform="translate(-246,-38) scale(1,1)"><path fill="#000000" stroke="none" d="M 925.8373251423759 636.209517756016 L 936 632 L 925.8373251423758 627.790482243984 L 914 632"/></g><g transform="translate(-246,-38) scale(1,1)"><path fill="none" stroke="#000000" d="M 925.8373251423759 636.209517756016 L 936 632 L 925.8373251423758 627.790482243984 L 914 632 L 925.8373251423759 636.209517756016" stroke-miterlimit="10"/></g><g transform="translate(-246,-38) scale(1,1)"><g><path fill="none" stroke="none"/><text fill="#000000" stroke="none" font-family="Arial" font-size="13px" font-style="normal" font-weight="normal" text-decoration="none" x="719.26513671875" y="570.471923828125">1</text></g></g><g transform="translate(-246,-38) scale(1,1)"><g><path fill="none" stroke="none"/><text fill="#000000" stroke="none" font-family="Arial" font-size="13px" font-style="normal" font-weight="normal" text-decoration="none" x="904.5" y="648.471923828125">1..*</text></g></g><g transform="translate(-246,-38) scale(1,1)"><rect fill="#C0C0C0" stroke="none" x="975" y="439" width="138.365234375" height="57" opacity="0.2"/></g><g transform="translate(-246,-38) scale(1,1)"><rect fill="#ffffff" stroke="none" x="968" y="432" width="138.365234375" height="57"/></g><g transform="translate(-246,-38) scale(1,1)"><path fill="none" stroke="#000000" d="M 968 432 L 1106.365234375 432 L 1106.365234375 489 L 968 489 L 968 432 Z Z" stroke-miterlimit="10"/></g><g transform="translate(-246,-38) scale(1,1)"><path fill="none" stroke="#000000" d="M 968 457 L 1106.365234375 457" stroke-miterlimit="10"/></g><g transform="translate(-246,-38) scale(1,1)"><path fill="none" stroke="#000000" d="M 968 480 L 1106.365234375 480" stroke-miterlimit="10"/></g><g transform="translate(-246,-38) scale(1,1)"><g><path fill="none" stroke="none"/><text fill="#000000" stroke="none" font-family="Arial" font-size="13px" font-style="normal" font-weight="bold" text-decoration="none" x="1012.26806640625" y="449.53857421875">Country</text></g></g><g transform="translate(-246,-38) scale(1,1)"><g><path fill="none" stroke="none"/><text fill="#000000" stroke="none" font-family="Arial" font-size="13px" font-style="normal" font-weight="normal" text-decoration="none" x="973" y="472.7099609375">-name: String {unique}</text></g></g><g transform="translate(-246,-38) scale(1,1)"><path fill="none" stroke="#000000" d="M 824 464 L 968 464" stroke-miterlimit="10"/></g><g transform="translate(-246,-38) scale(1,1)"><path fill="#FFFFFF" stroke="none" d="M 957.8373251423759 468.209517756016 L 968 464 L 957.8373251423758 459.790482243984 L 946 464"/></g><g transform="translate(-246,-38) scale(1,1)"><path fill="none" stroke="#000000" d="M 957.8373251423759 468.209517756016 L 968 464 L 957.8373251423758 459.790482243984 L 946 464 L 957.8373251423759 468.209517756016" stroke-miterlimit="10"/></g><g transform="translate(-246,-38) scale(1,1)"><g><path fill="none" stroke="none"/><text fill="#000000" stroke="none" font-family="Arial" font-size="13px" font-style="normal" font-weight="normal" text-decoration="none" x="835.5" y="480.53857421875">0..*</text></g></g><g transform="translate(-246,-38) scale(1,1)"><g><path fill="none" stroke="none"/><text fill="#000000" stroke="none" font-family="Arial" font-size="13px" font-style="normal" font-weight="normal" text-decoration="none" x="936.5" y="480.471923828125">1..*</text></g></g><g transform="translate(-246,-38) scale(1,1)"><rect fill="#C0C0C0" stroke="none" x="1023" y="287" width="89.57080078125" height="100" opacity="0.2"/></g><g transform="translate(-246,-38) scale(1,1)"><rect fill="#ffffff" stroke="none" x="1016" y="280" width="89.57080078125" height="100"/></g><g transform="translate(-246,-38) scale(1,1)"><path fill="none" stroke="#000000" d="M 1016 280 L 1105.57080078125 280 L 1105.57080078125 380 L 1016 380 L 1016 280 Z Z" stroke-miterlimit="10"/></g><g transform="translate(-246,-38) scale(1,1)"><path fill="none" stroke="#000000" d="M 1016 305 L 1105.57080078125 305" stroke-miterlimit="10"/></g><g transform="translate(-246,-38) scale(1,1)"><path fill="none" stroke="#000000" d="M 1016 328 L 1105.57080078125 328" stroke-miterlimit="10"/></g><g transform="translate(-246,-38) scale(1,1)"><g><path fill="none" stroke="none"/><text fill="#000000" stroke="none" font-family="Arial" font-size="13px" font-style="normal" font-weight="bold" text-decoration="none" x="1032.611328125" y="297.53857421875">Category</text></g></g><g transform="translate(-246,-38) scale(1,1)"><g><path fill="none" stroke="none"/><text fill="#000000" stroke="none" font-family="Arial" font-size="13px" font-style="normal" font-weight="normal" text-decoration="none" x="1021" y="320.7099609375">-name: String</text></g></g><g transform="translate(-246,-38) scale(1,1)"><g><path fill="none" stroke="none"/><text fill="#000000" stroke="none" font-family="Arial" font-size="13px" font-style="normal" font-weight="normal" text-decoration="none" x="1021" y="343.7099609375">-create()</text></g></g><g transform="translate(-246,-38) scale(1,1)"><g><path fill="none" stroke="none"/><text fill="#000000" stroke="none" font-family="Arial" font-size="13px" font-style="normal" font-weight="normal" text-decoration="none" x="1021" y="358.7099609375">-update()</text></g></g><g transform="translate(-246,-38) scale(1,1)"><g><path fill="none" stroke="none"/><text fill="#000000" stroke="none" font-family="Arial" font-size="13px" font-style="normal" font-weight="normal" text-decoration="none" x="1021" y="373.7099609375">-delete()</text></g></g><g transform="translate(-246,-38) scale(1,1)"><path fill="none" stroke="#000000" d="M 824 336 L 1016 336" stroke-miterlimit="10"/></g><g transform="translate(-246,-38) scale(1,1)"><path fill="#FFFFFF" stroke="none" d="M 1005.8373251423759 340.209517756016 L 1016 336 L 1005.8373251423758 331.790482243984 L 994 336"/></g><g transform="translate(-246,-38) scale(1,1)"><path fill="none" stroke="#000000" d="M 1005.8373251423759 340.209517756016 L 1016 336 L 1005.8373251423758 331.790482243984 L 994 336 L 1005.8373251423759 340.209517756016" stroke-miterlimit="10"/></g><g transform="translate(-246,-38) scale(1,1)"><g><path fill="none" stroke="none"/><text fill="#000000" stroke="none" font-family="Arial" font-size="13px" font-style="normal" font-weight="normal" text-decoration="none" x="835.5" y="352.53857421875">0..*</text></g></g><g transform="translate(-246,-38) scale(1,1)"><g><path fill="none" stroke="none"/><text fill="#000000" stroke="none" font-family="Arial" font-size="13px" font-style="normal" font-weight="normal" text-decoration="none" x="984.5" y="352.471923828125">1..*</text></g></g><g transform="translate(-246,-38) scale(1,1)"><rect fill="#C0C0C0" stroke="none" x="519" y="55" width="142.6689453125" height="235" opacity="0.2"/></g><g transform="translate(-246,-38) scale(1,1)"><rect fill="#ffffff" stroke="none" x="512" y="48" width="142.6689453125" height="235"/></g><g transform="translate(-246,-38) scale(1,1)"><path fill="none" stroke="#000000" d="M 512 48 L 654.6689453125 48 L 654.6689453125 283 L 512 283 L 512 48 Z Z" stroke-miterlimit="10"/></g><g transform="translate(-246,-38) scale(1,1)"><path fill="none" stroke="#000000" d="M 512 73 L 654.6689453125 73" stroke-miterlimit="10"/></g><g transform="translate(-246,-38) scale(1,1)"><path fill="none" stroke="#000000" d="M 512 171 L 654.6689453125 171" stroke-miterlimit="10"/></g><g transform="translate(-246,-38) scale(1,1)"><g><path fill="none" stroke="none"/><text fill="#000000" stroke="none" font-family="Arial" font-size="13px" font-style="normal" font-weight="bold" text-decoration="none" x="568.880859375" y="65.471923828125">User</text></g></g><g transform="translate(-246,-38) scale(1,1)"><g><path fill="none" stroke="none"/><text fill="#000000" stroke="none" font-family="Arial" font-size="13px" font-style="normal" font-weight="normal" text-decoration="none" x="517" y="88.7099609375">-email: String {unique}</text></g></g><g transform="translate(-246,-38) scale(1,1)"><g><path fill="none" stroke="none"/><text fill="#000000" stroke="none" font-family="Arial" font-size="13px" font-style="normal" font-weight="normal" text-decoration="none" x="517" y="103.7099609375">-nameComplete: String</text></g></g><g transform="translate(-246,-38) scale(1,1)"><g><path fill="none" stroke="none"/><text fill="#000000" stroke="none" font-family="Arial" font-size="13px" font-style="normal" font-weight="normal" text-decoration="none" x="517" y="118.7099609375">-password: String</text></g></g><g transform="translate(-246,-38) scale(1,1)"><g><path fill="none" stroke="none"/><text fill="#000000" stroke="none" font-family="Arial" font-size="13px" font-style="normal" font-weight="normal" text-decoration="none" x="517" y="133.7099609375">-birthDate: Date</text></g></g><g transform="translate(-246,-38) scale(1,1)"><g><path fill="none" stroke="none"/><text fill="#000000" stroke="none" font-family="Arial" font-size="13px" font-style="normal" font-weight="normal" text-decoration="none" x="517" y="148.7099609375">-createdDate: Date</text></g></g><g transform="translate(-246,-38) scale(1,1)"><g><path fill="none" stroke="none"/><text fill="#000000" stroke="none" font-family="Arial" font-size="13px" font-style="normal" font-weight="normal" text-decoration="none" x="517" y="163.7099609375">-active: Boolean</text></g></g><g transform="translate(-246,-38) scale(1,1)"><g><path fill="none" stroke="none"/><text fill="#000000" stroke="none" font-family="Arial" font-size="13px" font-style="normal" font-weight="normal" text-decoration="none" x="517" y="186.7099609375">+login()</text></g></g><g transform="translate(-246,-38) scale(1,1)"><g><path fill="none" stroke="none"/><text fill="#000000" stroke="none" font-family="Arial" font-size="13px" font-style="normal" font-weight="normal" text-decoration="none" x="517" y="201.7099609375">+updatePassword()</text></g></g><g transform="translate(-246,-38) scale(1,1)"><g><path fill="none" stroke="none"/><text fill="#000000" stroke="none" font-family="Arial" font-size="13px" font-style="normal" font-weight="normal" text-decoration="none" x="517" y="216.7099609375">+updateData()</text></g></g><g transform="translate(-246,-38) scale(1,1)"><g><path fill="none" stroke="none"/><text fill="#000000" stroke="none" font-family="Arial" font-size="13px" font-style="normal" font-weight="normal" text-decoration="none" x="517" y="231.7099609375">+delete()</text></g></g><g transform="translate(-246,-38) scale(1,1)"><g><path fill="none" stroke="none"/><text fill="#000000" stroke="none" font-family="Arial" font-size="13px" font-style="normal" font-weight="normal" text-decoration="none" x="517" y="246.7099609375">+getAllByFilter()</text></g></g><g transform="translate(-246,-38) scale(1,1)"><g><path fill="none" stroke="none"/><text fill="#000000" stroke="none" font-family="Arial" font-size="13px" font-style="normal" font-weight="normal" text-decoration="none" x="517" y="261.7099609375">+deactivateUser()</text></g></g><g transform="translate(-246,-38) scale(1,1)"><rect fill="#C0C0C0" stroke="none" x="263" y="143" width="138.365234375" height="57" opacity="0.2"/></g><g transform="translate(-246,-38) scale(1,1)"><rect fill="#ffffff" stroke="none" x="256" y="136" width="138.365234375" height="57"/></g><g transform="translate(-246,-38) scale(1,1)"><path fill="none" stroke="#000000" d="M 256 136 L 394.365234375 136 L 394.365234375 193 L 256 193 L 256 136 Z Z" stroke-miterlimit="10"/></g><g transform="translate(-246,-38) scale(1,1)"><path fill="none" stroke="#000000" d="M 256 161 L 394.365234375 161" stroke-miterlimit="10"/></g><g transform="translate(-246,-38) scale(1,1)"><path fill="none" stroke="#000000" d="M 256 184 L 394.365234375 184" stroke-miterlimit="10"/></g><g transform="translate(-246,-38) scale(1,1)"><g><path fill="none" stroke="none"/><text fill="#000000" stroke="none" font-family="Arial" font-size="13px" font-style="normal" font-weight="bold" text-decoration="none" x="311.09716796875" y="153.7099609375">Role</text></g></g><g transform="translate(-246,-38) scale(1,1)"><g><path fill="none" stroke="none"/><text fill="#000000" stroke="none" font-family="Arial" font-size="13px" font-style="normal" font-weight="normal" text-decoration="none" x="261" y="176.7099609375">-name: String {unique}</text></g></g><g transform="translate(-246,-38) scale(1,1)"><rect fill="#C0C0C0" stroke="none" x="943" y="119" width="122.09619140625" height="145" opacity="0.2"/></g><g transform="translate(-246,-38) scale(1,1)"><rect fill="#ffffff" stroke="none" x="936" y="112" width="122.09619140625" height="145"/></g><g transform="translate(-246,-38) scale(1,1)"><path fill="none" stroke="#000000" d="M 936 112 L 1058.09619140625 112 L 1058.09619140625 257 L 936 257 L 936 112 Z Z" stroke-miterlimit="10"/></g><g transform="translate(-246,-38) scale(1,1)"><path fill="none" stroke="#000000" d="M 936 137 L 1058.09619140625 137" stroke-miterlimit="10"/></g><g transform="translate(-246,-38) scale(1,1)"><path fill="none" stroke="#000000" d="M 936 205 L 1058.09619140625 205" stroke-miterlimit="10"/></g><g transform="translate(-246,-38) scale(1,1)"><g><path fill="none" stroke="none"/><text fill="#000000" stroke="none" font-family="Arial" font-size="13px" font-style="normal" font-weight="bold" text-decoration="none" x="955.88037109375" y="129.7099609375">Denunciation</text></g></g><g transform="translate(-246,-38) scale(1,1)"><g><path fill="none" stroke="none"/><text fill="#000000" stroke="none" font-family="Arial" font-size="13px" font-style="normal" font-weight="normal" text-decoration="none" x="941" y="152.7099609375">-title: String</text></g></g><g transform="translate(-246,-38) scale(1,1)"><g><path fill="none" stroke="none"/><text fill="#000000" stroke="none" font-family="Arial" font-size="13px" font-style="normal" font-weight="normal" text-decoration="none" x="941" y="167.7099609375">-coment: String</text></g></g><g transform="translate(-246,-38) scale(1,1)"><g><path fill="none" stroke="none"/><text fill="#000000" stroke="none" font-family="Arial" font-size="13px" font-style="normal" font-weight="normal" text-decoration="none" x="941" y="182.7099609375">-createdDate: Date</text></g></g><g transform="translate(-246,-38) scale(1,1)"><g><path fill="none" stroke="none"/><text fill="#000000" stroke="none" font-family="Arial" font-size="13px" font-style="normal" font-weight="normal" text-decoration="none" x="941" y="197.7099609375">+isView: Boolean</text></g></g><g transform="translate(-246,-38) scale(1,1)"><g><path fill="none" stroke="none"/><text fill="#000000" stroke="none" font-family="Arial" font-size="13px" font-style="normal" font-weight="normal" text-decoration="none" x="941" y="220.7099609375">+create()</text></g></g><g transform="translate(-246,-38) scale(1,1)"><g><path fill="none" stroke="none"/><text fill="#000000" stroke="none" font-family="Arial" font-size="13px" font-style="normal" font-weight="normal" text-decoration="none" x="941" y="235.7099609375">+update()</text></g></g><g transform="translate(-246,-38) scale(1,1)"><g><path fill="none" stroke="none"/><text fill="#000000" stroke="none" font-family="Arial" font-size="13px" font-style="normal" font-weight="normal" text-decoration="none" x="941" y="250.7099609375">+delete()</text></g></g><g transform="translate(-246,-38) scale(1,1)"><path fill="none" stroke="#000000" d="M 512 160 L 394 160" stroke-miterlimit="10" stroke-dasharray="3"/></g><g transform="translate(-246,-38) scale(1,1)"><path fill="none" stroke="#000000" d="M 404.16267485762415 155.790482243984 L 394 160 L 404.16267485762415 164.209517756016" stroke-miterlimit="10"/></g><g transform="translate(-246,-38) scale(1,1)"><g><path fill="none" stroke="none"/><text fill="#000000" stroke="none" font-family="Arial" font-size="13px" font-style="normal" font-weight="normal" text-decoration="none" x="441.2958984375" y="178.2021484375">tem</text></g></g><g transform="translate(-246,-38) scale(1,1)"><path fill="none" stroke="#000000" d="M 792 296 L 792 176 L 936 176" stroke-miterlimit="10"/></g><g transform="translate(-246,-38) scale(1,1)"><path fill="#000000" stroke="none" d="M 925.8373251423759 180.209517756016 L 936 176 L 925.8373251423758 171.790482243984 L 914 176"/></g><g transform="translate(-246,-38) scale(1,1)"><path fill="none" stroke="#000000" d="M 925.8373251423759 180.209517756016 L 936 176 L 925.8373251423758 171.790482243984 L 914 176 L 925.8373251423759 180.209517756016" stroke-miterlimit="10"/></g><g transform="translate(-246,-38) scale(1,1)"><g><path fill="none" stroke="none"/><text fill="#000000" stroke="none" font-family="Arial" font-size="13px" font-style="normal" font-weight="normal" text-decoration="none" x="794.5" y="278.53857421875">0..*</text></g></g><g transform="translate(-246,-38) scale(1,1)"><g><path fill="none" stroke="none"/><text fill="#000000" stroke="none" font-family="Arial" font-size="13px" font-style="normal" font-weight="normal" text-decoration="none" x="904.5" y="194.53857421875">0..*</text></g></g><g transform="translate(-246,-38) scale(1,1)"><rect fill="#C0C0C0" stroke="none" x="487" y="575" width="125.34619140625" height="90" opacity="0.2"/></g><g transform="translate(-246,-38) scale(1,1)"><rect fill="#ffffff" stroke="none" x="480" y="568" width="125.34619140625" height="90"/></g><g transform="translate(-246,-38) scale(1,1)"><path fill="none" stroke="#000000" d="M 480 568 L 605.34619140625 568 L 605.34619140625 658 L 480 658 L 480 568 Z Z" stroke-miterlimit="10"/></g><g transform="translate(-246,-38) scale(1,1)"><path fill="none" stroke="#000000" d="M 480 606 L 605.34619140625 606" stroke-miterlimit="10"/></g><g transform="translate(-246,-38) scale(1,1)"><g><path fill="none" stroke="none"/><text fill="#000000" stroke="none" font-family="Arial" font-size="13px" font-style="normal" font-weight="normal" text-decoration="none" x="499.30908203125" y="583.7099609375">«enumeration»</text></g></g><g transform="translate(-246,-38) scale(1,1)"><g><path fill="none" stroke="none"/><text fill="#000000" stroke="none" font-family="Arial" font-size="13px" font-style="normal" font-weight="bold" text-decoration="none" x="514.8671875" y="598.7099609375">Difficulty</text></g></g><g transform="translate(-246,-38) scale(1,1)"><g><path fill="none" stroke="none"/><text fill="#000000" stroke="none" font-family="Arial" font-size="13px" font-style="normal" font-weight="normal" text-decoration="none" x="485" y="621.53857421875">EASY</text></g></g><g transform="translate(-246,-38) scale(1,1)"><g><path fill="none" stroke="none"/><text fill="#000000" stroke="none" font-family="Arial" font-size="13px" font-style="normal" font-weight="normal" text-decoration="none" x="485" y="636.471923828125">MEDIUM</text></g></g><g transform="translate(-246,-38) scale(1,1)"><g><path fill="none" stroke="none"/><text fill="#000000" stroke="none" font-family="Arial" font-size="13px" font-style="normal" font-weight="normal" text-decoration="none" x="485" y="651.471923828125">HARD</text></g></g><g transform="translate(-246,-38) scale(1,1)"><path fill="none" stroke="#000000" d="M 664 504 L 552 504 L 552 568" stroke-miterlimit="10" stroke-dasharray="3"/></g><g transform="translate(-246,-38) scale(1,1)"><path fill="none" stroke="#000000" d="M 547.790482243984 557.8373251423759 L 552 568 L 556.209517756016 557.8373251423759" stroke-miterlimit="10"/></g><g transform="translate(-246,-38) scale(1,1)"><path fill="none" stroke="#000000" d="M 655 136 L 744 136 L 744 296" stroke-miterlimit="10"/></g><g transform="translate(-246,-38) scale(1,1)"><path fill="none" stroke="#000000" d="M 739.790482243984 285.83732514237585 L 744 296 L 748.209517756016 285.83732514237585" stroke-miterlimit="10"/></g><g transform="translate(-246,-38) scale(1,1)"><g><path fill="none" stroke="none"/><text fill="#000000" stroke="none" font-family="Arial" font-size="13px" font-style="normal" font-weight="normal" text-decoration="none" x="706.341796875" y="225.7099609375">cria</text></g></g><g transform="translate(-246,-38) scale(1,1)"><g><path fill="none" stroke="none"/><text fill="#000000" stroke="none" font-family="Arial" font-size="13px" font-style="normal" font-weight="normal" text-decoration="none" x="672.5" y="152.471923828125">1</text></g></g><g transform="translate(-246,-38) scale(1,1)"><g><path fill="none" stroke="none"/><text fill="#000000" stroke="none" font-family="Arial" font-size="13px" font-style="normal" font-weight="normal" text-decoration="none" x="721.5" y="278.53857421875">0..*</text></g></g><g transform="translate(-246,-38) scale(1,1)"><path fill="none" stroke="#000000" d="M 655 72 L 1000 72 L 1000 112" stroke-miterlimit="10"/></g><g transform="translate(-246,-38) scale(1,1)"><path fill="none" stroke="#000000" d="M 995.790482243984 101.83732514237585 L 1000 112 L 1004.209517756016 101.83732514237585" stroke-miterlimit="10"/></g><g transform="translate(-246,-38) scale(1,1)"><g><path fill="none" stroke="none"/><text fill="#000000" stroke="none" font-family="Arial" font-size="13px" font-style="normal" font-weight="normal" text-decoration="none" x="815.5" y="65.7099609375">realiza</text></g></g><g transform="translate(-246,-38) scale(1,1)"><g><path fill="none" stroke="none"/><text fill="#000000" stroke="none" font-family="Arial" font-size="13px" font-style="normal" font-weight="normal" text-decoration="none" x="672.5" y="88.471923828125">1</text></g></g><g transform="translate(-246,-38) scale(1,1)"><g><path fill="none" stroke="none"/><text fill="#000000" stroke="none" font-family="Arial" font-size="13px" font-style="normal" font-weight="normal" text-decoration="none" x="977.5" y="94.53857421875">0..*</text></g></g><g transform="translate(-246,-38) scale(1,1)"><path fill="none" stroke="#000000" d="M 583 283 L 583 376 L 664 376" stroke-miterlimit="10"/></g><g transform="translate(-246,-38) scale(1,1)"><path fill="none" stroke="#000000" d="M 653.8373251423759 380.209517756016 L 664 376 L 653.8373251423758 371.790482243984" stroke-miterlimit="10"/></g><g transform="translate(-246,-38) scale(1,1)"><g><path fill="none" stroke="none"/><text fill="#000000" stroke="none" font-family="Arial" font-size="13px" font-style="normal" font-weight="normal" text-decoration="none" x="530.2958984375" y="337.7099609375">favorita</text></g></g><g transform="translate(-246,-38) scale(1,1)"><g><path fill="none" stroke="none"/><text fill="#000000" stroke="none" font-family="Arial" font-size="13px" font-style="normal" font-weight="normal" text-decoration="none" x="566.5" y="308.471923828125">1</text></g></g><g transform="translate(-246,-38) scale(1,1)"><g><path fill="none" stroke="none"/><text fill="#000000" stroke="none" font-family="Arial" font-size="13px" font-style="normal" font-weight="normal" text-decoration="none" x="632.5" y="392.53857421875">0..*</text></g></g></g></svg>