<?xml version="1.0" encoding="UTF-8" standalone="no"?>
<svg
   xmlns:dc="http://purl.org/dc/elements/1.1/"
   xmlns:cc="http://creativecommons.org/ns#"
   xmlns:rdf="http://www.w3.org/1999/02/22-rdf-syntax-ns#"
   xmlns:svg="http://www.w3.org/2000/svg"
   xmlns="http://www.w3.org/2000/svg"
   viewBox="0 0 1057.3333 604"
   height="604"
   width="1057.3333"
   xml:space="preserve"
   id="svg2"
   version="1.1"><metadata
     id="metadata8"><rdf:RDF><cc:Work
         rdf:about=""><dc:format>image/svg+xml</dc:format><dc:type
           rdf:resource="http://purl.org/dc/dcmitype/StillImage" /></cc:Work></rdf:RDF></metadata><defs
     id="defs6"><clipPath
       id="clipPath20"
       clipPathUnits="userSpaceOnUse"><path
         id="path18"
         d="M -2,-2 H 888 V 428 H -2 Z" /></clipPath><clipPath
       id="clipPath84"
       clipPathUnits="userSpaceOnUse"><path
         id="path82"
         d="M -2,-2 H 888 V 428 H -2 Z" /></clipPath><clipPath
       id="clipPath90"
       clipPathUnits="userSpaceOnUse"><path
         id="path88"
         d="M 1,88 H 99 V 425 H 1 Z" /></clipPath><clipPath
       id="clipPath128"
       clipPathUnits="userSpaceOnUse"><path
         id="path126"
         d="M -2,-2 H 888 V 428 H -2 Z" /></clipPath><clipPath
       id="clipPath134"
       clipPathUnits="userSpaceOnUse"><path
         id="path132"
         d="M 102,88 H 230 V 425 H 102 Z" /></clipPath><clipPath
       id="clipPath184"
       clipPathUnits="userSpaceOnUse"><path
         id="path182"
         d="M -2,-2 H 888 V 428 H -2 Z" /></clipPath></defs><g
     transform="matrix(1.3333333,0,0,-1.3333333,0,604)"
     id="g10"><g
       transform="matrix(1,0,0,-1,0,453)"
       id="g12"><g
         transform="matrix(0.75,0,0,0.75,64.249998,54)"
         id="g14"><g
           clip-path="url(#clipPath20)"
           id="g16"><path
             id="path22"
             style="fill:#e06666;fill-opacity:1;fill-rule:nonzero;stroke:none"
             d="M -1,-1 H 887 V 29 H -1 Z" /><path
             id="path24"
             style="fill:#ff9900;fill-opacity:1;fill-rule:nonzero;stroke:none"
             d="M -1,28 H 887 V 58 H -1 Z" /><path
             id="path26"
             style="fill:#4a86e8;fill-opacity:1;fill-rule:nonzero;stroke:none"
             d="M -1,57 H 887 V 87 H -1 Z" /><path
             id="path28"
             style="fill:#93c47d;fill-opacity:1;fill-rule:nonzero;stroke:none"
             d="M -1,86 H 887 V 427 H -1 Z" /><g
             id="g30"><path
               id="path32"
               style="fill:#000000;fill-opacity:0.14901961;fill-rule:nonzero;stroke:none"
               d="m -1,0 v 0 h -1 v -1 h 1 z m 0,-1 v 0 -1 h 1 v 1 z m 0,30 v 0 h -1 v -1 h 1 z m 0,29 v 0 h -1 v -1 h 1 z m 0,29 v 0 h -1 v -1 h 1 z m 0,340 v 0 h -1 v -1 h 1 z M 100,-1 v 0 -1 h 1 v 1 z m 131,0 v 0 -1 h 1 v 1 z m 131,0 v 0 -1 h 1 v 1 z m 131,0 v 0 -1 h 1 v 1 z M 364,426 v 0 h 128 v 1 H 364 Z M 624,-1 v 0 -1 h 1 v 1 z m 131,0 v 0 -1 h 1 v 1 z m 131,0 v 0 -1 h 1 v 1 z M -1,428 v 0 -1 h 1 v 1 z m 101,0 v 0 -1 h 1 v 1 z m 131,0 v 0 -1 h 1 v 1 z m 131,0 v 0 -1 h 1 v 1 z m 131,0 v 0 -1 h 1 v 1 z m 131,0 v 0 -1 h 1 v 1 z m 131,0 v 0 -1 h 1 v 1 z m 131,0 v 0 -1 h 1 v 1 z M 888,0 v 0 h -1 v -1 h 1 z m 0,29 v 0 h -1 v -1 h 1 z m 0,29 v 0 h -1 v -1 h 1 z m 0,29 v 0 h -1 v -1 h 1 z m 0,340 v 0 h -1 v -1 h 1 z" /></g><path
             id="path34"
             style="fill:none;stroke:#ffffff;stroke-width:3;stroke-linecap:butt;stroke-linejoin:miter;stroke-miterlimit:10;stroke-dasharray:none;stroke-opacity:1"
             d="M -0.5,-2 V 428 M 100.5,56 V 428 M 231.5,56 V 428 M -2,426.5 H 364 M 362.5,56 V 428 M 493.5,56 V 428 M 624.5,27 V 428 M 755.5,56 V 428 M -2,-0.5 h 890 m -890,29 h 890 m -890,29 h 890 m -890,29 h 890 m -396,340 H 888 M 886.5,-2 v 430" /><text
             id="text38"
             style="font-variant:normal;font-weight:normal;font-size:18.19999886px;font-family:Calibri;-inkscape-font-specification:Calibri;writing-mode:lr-tb;fill:#ffffff;fill-opacity:1;fill-rule:nonzero;stroke:none"
             transform="translate(372,19.453125)"><tspan
               id="tspan36"
               y="0"
               x="0 9.2091999 25.388998 34.598198 45.936798 50.049995 59.604996 68.650398 72.763596 83.956596 92.856392 98.407394 102.5752 112.1302 116.298 123.83279 132.5506">5W2H de Definição</tspan></text>
<text
             id="text42"
             style="font-variant:normal;font-weight:normal;font-size:18.19999886px;font-family:Calibri;-inkscape-font-specification:Calibri;writing-mode:lr-tb;fill:#ffffff;fill-opacity:1;fill-rule:nonzero;stroke:none"
             transform="translate(300,48.453125)"><tspan
               id="tspan40"
               y="0"
               x="0 9.2091999">5W</tspan></text>
<text
             id="text46"
             style="font-variant:normal;font-weight:normal;font-size:18.19999886px;font-family:Calibri;-inkscape-font-specification:Calibri;writing-mode:lr-tb;fill:#ffffff;fill-opacity:1;fill-rule:nonzero;stroke:none"
             transform="translate(746,48.453125)"><tspan
               id="tspan44"
               y="0"
               x="0 9.2091999">2H</tspan></text>
<text
             id="text50"
             style="font-variant:normal;font-weight:normal;font-size:18.19999886px;font-family:Calibri;-inkscape-font-specification:Calibri;writing-mode:lr-tb;fill:#ffffff;fill-opacity:1;fill-rule:nonzero;stroke:none"
             transform="translate(24,77.453125)"><tspan
               id="tspan48"
               y="0"
               x="0 12.048399 16.161598 25.716599 35.271599 44.316998">O quê?</tspan></text>
<text
             id="text54"
             style="font-variant:normal;font-weight:normal;font-size:18.19999886px;font-family:Calibri;-inkscape-font-specification:Calibri;writing-mode:lr-tb;fill:#ffffff;fill-opacity:1;fill-rule:nonzero;stroke:none"
             transform="translate(134,77.453125)"><tspan
               id="tspan52"
               y="0"
               x="0 9.0271997 18.618599 24.952198 29.065399 38.620399 48.175396 57.220798">Por quê?</tspan></text>
<text
             id="text58"
             style="font-variant:normal;font-weight:normal;font-size:18.19999886px;font-family:Calibri;-inkscape-font-specification:Calibri;writing-mode:lr-tb;fill:#ffffff;fill-opacity:1;fill-rule:nonzero;stroke:none"
             transform="translate(273,77.453125)"><tspan
               id="tspan56"
               y="0"
               x="0 12.048399 21.603399 31.158398 40.203796">Onde?</tspan></text>
<text
             id="text62"
             style="font-variant:normal;font-weight:normal;font-size:18.19999886px;font-family:Calibri;-inkscape-font-specification:Calibri;writing-mode:lr-tb;fill:#ffffff;fill-opacity:1;fill-rule:nonzero;stroke:none"
             transform="translate(402,77.453125)"><tspan
               id="tspan60"
               y="0"
               x="0 12.230399 21.785398 30.830799 45.354397">Quem?</tspan></text>
<text
             id="text66"
             style="font-variant:normal;font-weight:normal;font-size:18.19999886px;font-family:Calibri;-inkscape-font-specification:Calibri;writing-mode:lr-tb;fill:#ffffff;fill-opacity:1;fill-rule:nonzero;stroke:none"
             transform="translate(526,77.453125)"><tspan
               id="tspan64"
               y="0"
               x="0 12.230399 21.785398 30.503199 40.058197 49.613197 59.204597">Quando?</tspan></text>
<text
             id="text70"
             style="font-variant:normal;font-weight:normal;font-size:18.19999886px;font-family:Calibri;-inkscape-font-specification:Calibri;writing-mode:lr-tb;fill:#ffffff;fill-opacity:1;fill-rule:nonzero;stroke:none"
             transform="translate(665,77.453125)"><tspan
               id="tspan68"
               y="0"
               x="0 9.7005997 19.292 33.815598 43.406998">Como?</tspan></text>
<text
             id="text74"
             style="font-variant:normal;font-weight:normal;font-size:18.19999886px;font-family:Calibri;-inkscape-font-specification:Calibri;writing-mode:lr-tb;fill:#ffffff;fill-opacity:1;fill-rule:nonzero;stroke:none"
             transform="translate(768,77.453125)"><tspan
               id="tspan72"
               y="0"
               x="0 12.230399 21.785398 30.503199 39.894398 45.809399 55.400799 59.513996 67.194397 76.749397 83.665398 89.525795 98.243591">Quanto custa?</tspan></text>
</g></g><g
         id="g76"><g
           transform="matrix(0.75,0,0,0.75,64.25,54)"
           id="g78"><g
             clip-path="url(#clipPath84)"
             id="g80"><g
               clip-path="url(#clipPath90)"
               id="g86"><text
                 id="text94"
                 style="font-variant:normal;font-weight:normal;font-size:18.19999886px;font-family:Calibri;-inkscape-font-specification:Calibri;writing-mode:lr-tb;fill:#ffffff;fill-opacity:1;fill-rule:nonzero;stroke:none"
                 transform="translate(5,108.65466)"><tspan
                   id="tspan92"
                   y="0"
                   x="0 11.193 20.2384 27.354599 36.399998 45.663799 53.708199 63.299595 67.4674 75.511795 84.557198 90.890793">Desenvolver </tspan></text>
<text
                 id="text98"
                 style="font-variant:normal;font-weight:normal;font-size:18.19999886px;font-family:Calibri;-inkscape-font-specification:Calibri;writing-mode:lr-tb;fill:#ffffff;fill-opacity:1;fill-rule:nonzero;stroke:none"
                 transform="translate(5,130.8562)"><tspan
                   id="tspan96"
                   y="0"
                   x="0 9.5549994 24.078598 32.796398">uma </tspan></text>
<text
                 id="text102"
                 style="font-variant:normal;font-weight:normal;font-size:18.19999886px;font-family:Calibri;-inkscape-font-specification:Calibri;writing-mode:lr-tb;fill:#ffffff;fill-opacity:1;fill-rule:nonzero;stroke:none"
                 transform="translate(5,153.05774)"><tspan
                   id="tspan100"
                   y="0"
                   x="0 9.5549994 13.722799 22.276798 28.137199 36.763996 41.950996 51.542397 57.875996 72.399597 81.117393">plataforma </tspan></text>
<text
                 id="text106"
                 style="font-variant:normal;font-weight:normal;font-size:18.19999886px;font-family:Calibri;-inkscape-font-specification:Calibri;writing-mode:lr-tb;fill:#ffffff;fill-opacity:1;fill-rule:nonzero;stroke:none"
                 transform="translate(5,175.25928)"><tspan
                   id="tspan104"
                   y="0"
                   x="0 9.5549994 18.600399 22.713598 28.810598 37.855999 45.536396 54.581799 58.749596 64.609993 73.327797 80.443993">de receitas </tspan></text>
<text
                 id="text110"
                 style="font-variant:normal;font-weight:normal;font-size:18.19999886px;font-family:Calibri;-inkscape-font-specification:Calibri;writing-mode:lr-tb;fill:#ffffff;fill-opacity:1;fill-rule:nonzero;stroke:none"
                 transform="translate(5,197.46082)"><tspan
                   id="tspan108"
                   y="0"
                   x="0 9.5549994 18.600399 22.713598 32.268597 41.313999 50.868996 55.036797 64.591797 73.309593 80.425797">de bebidas </tspan></text>
<text
                 id="text114"
                 style="font-variant:normal;font-weight:normal;font-size:18.19999886px;font-family:Calibri;-inkscape-font-specification:Calibri;writing-mode:lr-tb;fill:#ffffff;fill-opacity:1;fill-rule:nonzero;stroke:none"
                 transform="translate(5,219.66235)"><tspan
                   id="tspan112"
                   y="0"
                   x="0 9.0453997 13.158599 22.713598 29.047199 33.214996 42.769997 50.868996 57.985195">e drinks </tspan></text>
<text
                 id="text118"
                 style="font-variant:normal;font-weight:normal;font-size:18.19999886px;font-family:Calibri;-inkscape-font-specification:Calibri;writing-mode:lr-tb;fill:#ffffff;fill-opacity:1;fill-rule:nonzero;stroke:none"
                 transform="translate(5,241.86389)"><tspan
                   id="tspan116"
                   y="0"
                   x="0 8.7177992 12.885599 20.420399 30.011799 39.603199 43.770996 47.938797 55.473598 65.064995 72.181198">alcoólicos.</tspan></text>
</g></g></g></g><g
         id="g120"><g
           transform="matrix(0.75,0,0,0.75,64.25,54)"
           id="g122"><g
             clip-path="url(#clipPath128)"
             id="g124"><g
               clip-path="url(#clipPath134)"
               id="g130"><text
                 id="text138"
                 style="font-variant:normal;font-weight:normal;font-size:18.19999886px;font-family:Calibri;-inkscape-font-specification:Calibri;writing-mode:lr-tb;fill:#ffffff;fill-opacity:1;fill-rule:nonzero;stroke:none"
                 transform="translate(106,108.65466)"><tspan
                   id="tspan136"
                   y="0"
                   x="0 9.0089998 17.726799 23.696398 32.4142 36.527397 41.714397 51.305798 57.639397 67.194397 76.239799 83.920197 92.965591 99.299194">Para fornecer </tspan></text>
<text
                 id="text142"
                 style="font-variant:normal;font-weight:normal;font-size:18.19999886px;font-family:Calibri;-inkscape-font-specification:Calibri;writing-mode:lr-tb;fill:#ffffff;fill-opacity:1;fill-rule:nonzero;stroke:none"
                 transform="translate(106,130.8562)"><tspan
                   id="tspan140"
                   y="0"
                   x="0 6.0969996 15.142399 22.8228 31.868198 36.035999 41.896397 50.614197 57.730396 61.843597 71.398598 80.443993">receitas de </tspan></text>
<text
                 id="text146"
                 style="font-variant:normal;font-weight:normal;font-size:18.19999886px;font-family:Calibri;-inkscape-font-specification:Calibri;writing-mode:lr-tb;fill:#ffffff;fill-opacity:1;fill-rule:nonzero;stroke:none"
                 transform="translate(106,153.05774)"><tspan
                   id="tspan144"
                   y="0"
                   x="0 9.5549994 15.888599 20.056398 29.611399 37.7104 44.826599 48.939796 57.657597 61.825397 69.360199 78.951599 88.542992 92.710793 96.878593 104.41339 114.00479 121.12099">drinks alcoólicos </tspan></text>
<text
                 id="text150"
                 style="font-variant:normal;font-weight:normal;font-size:18.19999886px;font-family:Calibri;-inkscape-font-specification:Calibri;writing-mode:lr-tb;fill:#ffffff;fill-opacity:1;fill-rule:nonzero;stroke:none"
                 transform="translate(106,175.25928)"><tspan
                   id="tspan148"
                   y="0"
                   x="0 8.7177992">a </tspan></text>
<text
                 id="text154"
                 style="font-variant:normal;font-weight:normal;font-size:18.19999886px;font-family:Calibri;-inkscape-font-specification:Calibri;writing-mode:lr-tb;fill:#ffffff;fill-opacity:1;fill-rule:nonzero;stroke:none"
                 transform="translate(106,197.46082)"><tspan
                   id="tspan152"
                   y="0"
                   x="0 5.7875996 15.306199 23.350599 32.396 41.950996 49.067196 55.473598 65.993195 75.548195 85.103195 89.270996 95.185997 104.7774 111.89359">Jovens/Adultos </tspan></text>
<text
                 id="text158"
                 style="font-variant:normal;font-weight:normal;font-size:18.19999886px;font-family:Calibri;-inkscape-font-specification:Calibri;writing-mode:lr-tb;fill:#ffffff;fill-opacity:1;fill-rule:nonzero;stroke:none"
                 transform="translate(106,219.66235)"><tspan
                   id="tspan156"
                   y="0"
                   x="0 4.1677999 13.558999 19.637798 29.192799 36.308998 40.476799 49.194599 56.110596 61.970997 70.688797 77.804993 81.918198 91.509598 101.0646">intusiastas ou </tspan></text>
<text
                 id="text162"
                 style="font-variant:normal;font-weight:normal;font-size:18.19999886px;font-family:Calibri;-inkscape-font-specification:Calibri;writing-mode:lr-tb;fill:#ffffff;fill-opacity:1;fill-rule:nonzero;stroke:none"
                 transform="translate(106,241.86389)"><tspan
                   id="tspan160"
                   y="0"
                   x="0 9.8825998 18.600399 24.933998 30.830799 39.876198 49.431198 58.986198 68.031593 74.055794 81.171997">Bartenders </tspan></text>
<text
                 id="text166"
                 style="font-variant:normal;font-weight:normal;font-size:18.19999886px;font-family:Calibri;-inkscape-font-specification:Calibri;writing-mode:lr-tb;fill:#ffffff;fill-opacity:1;fill-rule:nonzero;stroke:none"
                 transform="translate(106,264.06543)"><tspan
                   id="tspan164"
                   y="0"
                   x="0 4.1677999 13.722799 17.890598 25.570999 29.738798 38.456596 47.847797 53.744598 62.789997 69.906197 74.019394 83.574394 92.292198">iniciantes na </tspan></text>
<text
                 id="text170"
                 style="font-variant:normal;font-weight:normal;font-size:18.19999886px;font-family:Calibri;-inkscape-font-specification:Calibri;writing-mode:lr-tb;fill:#ffffff;fill-opacity:1;fill-rule:nonzero;stroke:none"
                 transform="translate(106,286.26697)"><tspan
                   id="tspan168"
                   y="0"
                   x="0 7.5347996 17.1262 26.681198 36.236198 45.190598 51.087399 60.132797 64.300598 73.018394 79.351997 83.519798 92.237595 99.262794 113.78639">coquetelaria/mi</tspan></text>
<text
                 id="text174"
                 style="font-variant:normal;font-weight:normal;font-size:18.19999886px;font-family:Calibri;-inkscape-font-specification:Calibri;writing-mode:lr-tb;fill:#ffffff;fill-opacity:1;fill-rule:nonzero;stroke:none"
                 transform="translate(106,308.4685)"><tspan
                   id="tspan172"
                   y="0"
                   x="0 7.4073997 16.998798 21.166599 30.757998 39.311996 43.479797 52.197598">xologia.</tspan></text>
</g></g></g></g><g
         id="g176"><g
           transform="matrix(0.75,0,0,0.75,64.25,54)"
           id="g178"><g
             clip-path="url(#clipPath184)"
             id="g180"><text
               id="text188"
               style="font-variant:normal;font-weight:normal;font-size:18.19999886px;font-family:Calibri;-inkscape-font-specification:Calibri;writing-mode:lr-tb;fill:#ffffff;fill-opacity:1;fill-rule:nonzero;stroke:none"
               transform="translate(237,108.65466)"><tspan
                 id="tspan186"
                 y="0"
                 x="0 8.8815994 23.405199 27.518398 37.073399 51.596996 60.314796">Em uma </tspan></text>
<text
               id="text192"
               style="font-variant:normal;font-weight:normal;font-size:18.19999886px;font-family:Calibri;-inkscape-font-specification:Calibri;writing-mode:lr-tb;fill:#ffffff;fill-opacity:1;fill-rule:nonzero;stroke:none"
               transform="translate(237,130.8562)"><tspan
                 id="tspan190"
                 y="0"
                 x="0 9.5549994 13.722799 22.276798 28.137199 36.763996 41.950996 51.542397 57.875996 72.399597 81.117393 85.230598 98.079796 107.12519 116.68019">plataforma web </tspan></text>
<text
               id="text196"
               style="font-variant:normal;font-weight:normal;font-size:18.19999886px;font-family:Calibri;-inkscape-font-specification:Calibri;writing-mode:lr-tb;fill:#ffffff;fill-opacity:1;fill-rule:nonzero;stroke:none"
               transform="translate(237,153.05774)"><tspan
                 id="tspan194"
                 y="0"
                 x="0 6.0969996 15.142399 22.258598 31.813599 41.404999 48.521198 52.688995 60.642395 69.360199">resposiva.</tspan></text>
<text
               id="text200"
               style="font-variant:normal;font-weight:normal;font-size:18.19999886px;font-family:Calibri;-inkscape-font-specification:Calibri;writing-mode:lr-tb;fill:#ffffff;fill-opacity:1;fill-rule:nonzero;stroke:none"
               transform="translate(367,107.65466)"><tspan
                 id="tspan198"
                 y="0"
                 x="0 10.519599 14.632799 23.678198 33.2332 42.788197 46.955997 56.510998 65.556396 69.669594 79.224594 88.269997">A equipe de </tspan></text>
<text
               id="text204"
               style="font-variant:normal;font-weight:normal;font-size:18.19999886px;font-family:Calibri;-inkscape-font-specification:Calibri;writing-mode:lr-tb;fill:#ffffff;fill-opacity:1;fill-rule:nonzero;stroke:none"
               transform="translate(367,129.8562)"><tspan
                 id="tspan202"
                 y="0"
                 x="0 9.5549994 18.600399 25.716599 34.761997 44.025799 52.070198 61.661598 65.829399 74.037598 78.205399 92.728996 101.77439 111.1656">desenvolviment</tspan></text>
<text
               id="text208"
               style="font-variant:normal;font-weight:normal;font-size:18.19999886px;font-family:Calibri;-inkscape-font-specification:Calibri;writing-mode:lr-tb;fill:#ffffff;fill-opacity:1;fill-rule:nonzero;stroke:none"
               transform="translate(367,152.05774)"><tspan
                 id="tspan206"
                 y="0"
                 x="0 9.5913992 13.704599 23.259598 32.850998 36.964199 48.430199 54.763798 64.318794 73.873795 83.465195 87.578392 96.787598 100.90079 110.4558 119.17359">o do Grupo 1 da </tspan></text>
<text
               id="text212"
               style="font-variant:normal;font-weight:normal;font-size:18.19999886px;font-family:Calibri;-inkscape-font-specification:Calibri;writing-mode:lr-tb;fill:#ffffff;fill-opacity:1;fill-rule:nonzero;stroke:none"
               transform="translate(367,174.25928)"><tspan
                 id="tspan210"
                 y="0"
                 x="0 9.5549994 13.722799 20.838999 28.519398 32.687199 42.242199 46.409996 50.577797 60.132797 68.850594 72.963799 82.518799 91.564194">disciplina de </tspan></text>
<text
               id="text216"
               style="font-variant:normal;font-weight:normal;font-size:18.19999886px;font-family:Calibri;-inkscape-font-specification:Calibri;writing-mode:lr-tb;fill:#ffffff;fill-opacity:1;fill-rule:nonzero;stroke:none"
               transform="translate(367,196.46082)"><tspan
                 id="tspan214"
                 y="0"
                 x="0 10.519599 16.6166 26.171598 35.726597 39.894398 45.791199 54.745598 60.824398 70.379395 76.348999 85.066795 89.179993 98.225395">Arquitetura e </tspan></text>
<text
               id="text220"
               style="font-variant:normal;font-weight:normal;font-size:18.19999886px;font-family:Calibri;-inkscape-font-specification:Calibri;writing-mode:lr-tb;fill:#ffffff;fill-opacity:1;fill-rule:nonzero;stroke:none"
               transform="translate(367,218.66235)"><tspan
                 id="tspan218"
                 y="0"
                 x="0 11.193 20.2384 27.354599 36.399998 45.954998 55.509998 65.101395 69.2146 78.769592 87.814995">Desenho de </tspan></text>
<text
               id="text224"
               style="font-variant:normal;font-weight:normal;font-size:18.19999886px;font-family:Calibri;-inkscape-font-specification:Calibri;writing-mode:lr-tb;fill:#ffffff;fill-opacity:1;fill-rule:nonzero;stroke:none"
               transform="translate(367,240.86389)"><tspan
                 id="tspan222"
                 y="0"
                 x="0 7.1161995 16.7076 22.258598 28.337399 41.131996 49.849796 55.946796 64.992195">software </tspan></text>
<text
               id="text228"
               style="font-variant:normal;font-weight:normal;font-size:18.19999886px;font-family:Calibri;-inkscape-font-specification:Calibri;writing-mode:lr-tb;fill:#ffffff;fill-opacity:1;fill-rule:nonzero;stroke:none"
               transform="translate(367,263.06543)"><tspan
                 id="tspan226"
                 y="0"
                 x="0 9.2091999 18.4184 27.627598 36.8368 41.423199 50.632397">2022.2.</tspan></text>
<text
               id="text232"
               style="font-variant:normal;font-weight:normal;font-size:18.19999886px;font-family:Calibri;-inkscape-font-specification:Calibri;writing-mode:lr-tb;fill:#ffffff;fill-opacity:1;fill-rule:nonzero;stroke:none"
               transform="translate(499,108.65466)"><tspan
                 id="tspan230"
                 y="0"
                 x="0 11.738999 21.330399 25.443598 34.998596 44.043999 50.377598 54.545399 64.136795 73.691795 83.283195">No periodo </tspan></text>
<text
               id="text236"
               style="font-variant:normal;font-weight:normal;font-size:18.19999886px;font-family:Calibri;-inkscape-font-specification:Calibri;writing-mode:lr-tb;fill:#ffffff;fill-opacity:1;fill-rule:nonzero;stroke:none"
               transform="translate(499,130.8562)"><tspan
                 id="tspan234"
                 y="0"
                 x="0 9.0453997 18.4366 24.515398 30.612398 39.657799 43.770996 52.980198 62.189396 69.2146 78.423798 87.632996 94.658195 103.86739 113.07659">entre 04/11/22 </tspan></text>
<text
               id="text240"
               style="font-variant:normal;font-weight:normal;font-size:18.19999886px;font-family:Calibri;-inkscape-font-specification:Calibri;writing-mode:lr-tb;fill:#ffffff;fill-opacity:1;fill-rule:nonzero;stroke:none"
               transform="translate(499,153.05774)"><tspan
                 id="tspan238"
                 y="0"
                 x="0 8.5539999 14.450799 23.496199 27.609398 36.8186 46.027798 53.052998 62.262196 71.471397 78.496597 87.705795 96.914993">até 30/01/23.</tspan></text>
<text
               id="text244"
               style="font-variant:normal;font-weight:normal;font-size:18.19999886px;font-family:Calibri;-inkscape-font-specification:Calibri;writing-mode:lr-tb;fill:#ffffff;fill-opacity:1;fill-rule:nonzero;stroke:none"
               transform="translate(630,108.65466)"><tspan
                 id="tspan242"
                 y="0"
                 x="0 11.6662 17.744999 21.912798 26.080599 30.248398 37.146198 45.863998 55.418999 64.973999 74.565399 78.678596 88.233597 97.278992">Utilizando de </tspan></text>
<text
               id="text248"
               style="font-variant:normal;font-weight:normal;font-size:18.19999886px;font-family:Calibri;-inkscape-font-specification:Calibri;writing-mode:lr-tb;fill:#ffffff;fill-opacity:1;fill-rule:nonzero;stroke:none"
               transform="translate(630,130.8562)"><tspan
                 id="tspan246"
                 y="0"
                 x="0 9.5549994 24.078598 32.796398 36.909599 43.825596 49.685997 58.403797 66.084198 74.346992">uma stack </tspan></text>
<text
               id="text252"
               style="font-variant:normal;font-weight:normal;font-size:18.19999886px;font-family:Calibri;-inkscape-font-specification:Calibri;writing-mode:lr-tb;fill:#ffffff;fill-opacity:1;fill-rule:nonzero;stroke:none"
               transform="translate(630,153.05774)"><tspan
                 id="tspan250"
                 y="0"
                 x="0 9.5549994 18.272799 25.388998 34.434399 43.152199 52.707195 61.424995 65.538193 74.583595 89.107193 93.220398 102.01099 110.36479">baseada em TS </tspan></text>
<text
               id="text256"
               style="font-variant:normal;font-weight:normal;font-size:18.19999886px;font-family:Calibri;-inkscape-font-specification:Calibri;writing-mode:lr-tb;fill:#ffffff;fill-opacity:1;fill-rule:nonzero;stroke:none"
               transform="translate(630,175.25928)"><tspan
                 id="tspan254"
                 y="0"
                 x="0 9.5549994 18.272799 24.242399 32.960197 37.073399 45.791199">para a </tspan></text>
<text
               id="text260"
               style="font-variant:normal;font-weight:normal;font-size:18.19999886px;font-family:Calibri;-inkscape-font-specification:Calibri;writing-mode:lr-tb;fill:#ffffff;fill-opacity:1;fill-rule:nonzero;stroke:none"
               transform="translate(630,197.46082)"><tspan
                 id="tspan258"
                 y="0"
                 x="0 7.5347996 17.1262 26.681198 33.597198 39.675999 46.009598 55.564598 63.099396 71.8172 81.408592 85.521797 95.076797 104.12219">construção de </tspan></text>
<text
               id="text264"
               style="font-variant:normal;font-weight:normal;font-size:18.19999886px;font-family:Calibri;-inkscape-font-specification:Calibri;writing-mode:lr-tb;fill:#ffffff;fill-opacity:1;fill-rule:nonzero;stroke:none"
               transform="translate(630,219.66235)"><tspan
                 id="tspan262"
                 y="0"
                 x="0 9.5549994 24.078598 32.796398 36.909599 45.627396 55.182396 59.350197 63.517998 71.052795 79.770599 87.305397 96.023193 105.61459">uma aplicação </tspan></text>
<text
               id="text268"
               style="font-variant:normal;font-weight:normal;font-size:18.19999886px;font-family:Calibri;-inkscape-font-specification:Calibri;writing-mode:lr-tb;fill:#ffffff;fill-opacity:1;fill-rule:nonzero;stroke:none"
               transform="translate(630,241.86389)"><tspan
                 id="tspan266"
                 y="0"
                 x="0 8.3537998 14.396199 23.987598 33.378799 38.911598 44.480797 53.362396 62.917397 72.472397 76.585594 85.630997">Front-End e </tspan></text>
<text
               id="text272"
               style="font-variant:normal;font-weight:normal;font-size:18.19999886px;font-family:Calibri;-inkscape-font-specification:Calibri;writing-mode:lr-tb;fill:#ffffff;fill-opacity:1;fill-rule:nonzero;stroke:none"
               transform="translate(630,264.06543)"><tspan
                 id="tspan270"
                 y="0"
                 x="0 9.5549994 24.078598 32.796398 36.909599 45.627396 55.182396 59.350197 63.517998 71.052795 79.770599 87.305397 96.023193 105.61459">uma aplicação </tspan></text>
<text
               id="text276"
               style="font-variant:normal;font-weight:normal;font-size:18.19999886px;font-family:Calibri;-inkscape-font-specification:Calibri;writing-mode:lr-tb;fill:#ffffff;fill-opacity:1;fill-rule:nonzero;stroke:none"
               transform="translate(630,286.26697)"><tspan
                 id="tspan274"
                 y="0"
                 x="0 9.8825998 18.600399 26.280798 33.870197 39.4394 48.484798 58.039795 67.594795 71.707993 81.262993 90.817993 99.863396">Back-end que </tspan></text>
<text
               id="text280"
               style="font-variant:normal;font-weight:normal;font-size:18.19999886px;font-family:Calibri;-inkscape-font-specification:Calibri;writing-mode:lr-tb;fill:#ffffff;fill-opacity:1;fill-rule:nonzero;stroke:none"
               transform="translate(630,308.4685)"><tspan
                 id="tspan278"
                 y="0"
                 x="0 8.5539999 14.450799 23.496199 33.051197 42.606197 51.323997 65.847595 69.960793 79.552193">atendam o </tspan></text>
<text
               id="text284"
               style="font-variant:normal;font-weight:normal;font-size:18.19999886px;font-family:Calibri;-inkscape-font-specification:Calibri;writing-mode:lr-tb;fill:#ffffff;fill-opacity:1;fill-rule:nonzero;stroke:none"
               transform="translate(630,330.67004)"><tspan
                 id="tspan282"
                 y="0"
                 x="0 14.5236 24.114998 33.669998 42.715397 46.883198 56.474598 60.587795 70.142799 79.188194">modelo de </tspan></text>
<text
               id="text288"
               style="font-variant:normal;font-weight:normal;font-size:18.19999886px;font-family:Calibri;-inkscape-font-specification:Calibri;writing-mode:lr-tb;fill:#ffffff;fill-opacity:1;fill-rule:nonzero;stroke:none"
               transform="translate(630,352.87158)"><tspan
                 id="tspan286"
                 y="0"
                 x="0 9.5549994 18.600399 27.045198 36.636597 44.316998 48.484798 58.076199">negócio </tspan></text>
<text
               id="text292"
               style="font-variant:normal;font-weight:normal;font-size:18.19999886px;font-family:Calibri;-inkscape-font-specification:Calibri;writing-mode:lr-tb;fill:#ffffff;fill-opacity:1;fill-rule:nonzero;stroke:none"
               transform="translate(630,375.07312)"><tspan
                 id="tspan290"
                 y="0"
                 x="0 9.5549994 18.4548 24.005798 28.173599 37.7286 41.896397 51.451397 61.042797">definido.</tspan></text>
<text
               id="text296"
               style="font-variant:normal;font-weight:normal;font-size:18.19999886px;font-family:Calibri;-inkscape-font-specification:Calibri;writing-mode:lr-tb;fill:#ffffff;fill-opacity:1;fill-rule:nonzero;stroke:none"
               transform="translate(761,108.65466)"><tspan
                 id="tspan294"
                 y="0"
                 x="0 12.048399 16.161598 23.841999 33.396999 40.312996 46.227997 55.819397">O custo </tspan></text>
<text
               id="text300"
               style="font-variant:normal;font-weight:normal;font-size:18.19999886px;font-family:Calibri;-inkscape-font-specification:Calibri;writing-mode:lr-tb;fill:#ffffff;fill-opacity:1;fill-rule:nonzero;stroke:none"
               transform="translate(761,130.8562)"><tspan
                 id="tspan298"
                 y="0"
                 x="0 14.5236 24.114998 33.669998 42.624397 48.484798 57.202599 63.536198 67.703995 77.295395">monetário </tspan></text>
<text
               id="text304"
               style="font-variant:normal;font-weight:normal;font-size:18.19999886px;font-family:Calibri;-inkscape-font-specification:Calibri;writing-mode:lr-tb;fill:#ffffff;fill-opacity:1;fill-rule:nonzero;stroke:none"
               transform="translate(761,153.05774)"><tspan
                 id="tspan302"
                 y="0"
                 x="0 9.5549994 15.651999 24.6064 30.503199 39.548599 49.103596 58.658596 62.826397 72.381393 81.972794 86.085999 93.202194 102.2476 108.21719 116.93499">pretendido será </tspan></text>
<text
               id="text308"
               style="font-variant:normal;font-weight:normal;font-size:18.19999886px;font-family:Calibri;-inkscape-font-specification:Calibri;writing-mode:lr-tb;fill:#ffffff;fill-opacity:1;fill-rule:nonzero;stroke:none"
               transform="translate(761,175.25928)"><tspan
                 id="tspan306"
                 y="0"
                 x="0 9.5549994 18.600399 28.155399 37.7104 47.265396 61.788998 66.320793 70.433998 77.550194 86.595596 96.150597 105.7056 115.297">nenhum, sendo </tspan></text>
<text
               id="text312"
               style="font-variant:normal;font-weight:normal;font-size:18.19999886px;font-family:Calibri;-inkscape-font-specification:Calibri;writing-mode:lr-tb;fill:#ffffff;fill-opacity:1;fill-rule:nonzero;stroke:none"
               transform="translate(761,197.46082)"><tspan
                 id="tspan310"
                 y="0"
                 x="0 9.5549994 15.6338 19.8016 23.969398 28.137199 35.035 43.752796 53.307796 62.025597 69.1418">utilizadas </tspan></text>
<text
               id="text316"
               style="font-variant:normal;font-weight:normal;font-size:18.19999886px;font-family:Calibri;-inkscape-font-specification:Calibri;writing-mode:lr-tb;fill:#ffffff;fill-opacity:1;fill-rule:nonzero;stroke:none"
               transform="translate(761,219.66235)"><tspan
                 id="tspan314"
                 y="0"
                 x="0 7.5347996 17.1262 26.517399 32.3778 41.095596 48.211796">contas </tspan></text>
<text
               id="text320"
               style="font-variant:normal;font-weight:normal;font-size:18.19999886px;font-family:Calibri;-inkscape-font-specification:Calibri;writing-mode:lr-tb;fill:#ffffff;fill-opacity:1;fill-rule:nonzero;stroke:none"
               transform="translate(761,241.86389)"><tspan
                 id="tspan318"
                 y="0"
                 x="0 9.5549994 19.109999 23.2778 31.322199 40.367599 46.391796 53.507996 57.675797 63.536198 72.253998 78.587593 82.755394 91.473198">universitária </tspan></text>
<text
               id="text324"
               style="font-variant:normal;font-weight:normal;font-size:18.19999886px;font-family:Calibri;-inkscape-font-specification:Calibri;writing-mode:lr-tb;fill:#ffffff;fill-opacity:1;fill-rule:nonzero;stroke:none"
               transform="translate(761,264.06543)"><tspan
                 id="tspan322"
                 y="0"
                 x="0 9.5549994 18.272799 24.242399 32.960197 37.073399 46.628399 56.219795 63.335995 72.890999 81.936394 91.491394 100.2092 106.54279 110.65599 119.70139">para hospedar e </tspan></text>
<text
               id="text328"
               style="font-variant:normal;font-weight:normal;font-size:18.19999886px;font-family:Calibri;-inkscape-font-specification:Calibri;writing-mode:lr-tb;fill:#ffffff;fill-opacity:1;fill-rule:nonzero;stroke:none"
               transform="translate(761,286.26697)"><tspan
                 id="tspan326"
                 y="0"
                 x="0 14.5236 23.241398 32.632599 38.529396 47.574799 53.908398 58.021595 66.739395">manter a </tspan></text>
<text
               id="text332"
               style="font-variant:normal;font-weight:normal;font-size:18.19999886px;font-family:Calibri;-inkscape-font-specification:Calibri;writing-mode:lr-tb;fill:#ffffff;fill-opacity:1;fill-rule:nonzero;stroke:none"
               transform="translate(761,308.4685)"><tspan
                 id="tspan330"
                 y="0"
                 x="0 9.5549994 13.722799 22.276798 28.137199 36.763996 41.950996 51.542397 57.875996 72.399597 81.117393 85.703796 89.816994 101.86539">plataforma. O </tspan></text>
<text
               id="text336"
               style="font-variant:normal;font-weight:normal;font-size:18.19999886px;font-family:Calibri;-inkscape-font-specification:Calibri;writing-mode:lr-tb;fill:#ffffff;fill-opacity:1;fill-rule:nonzero;stroke:none"
               transform="translate(761,330.67004)"><tspan
                 id="tspan334"
                 y="0"
                 x="0 7.9533997 16.6712 20.838999 30.430399 36.763996 40.877197 55.400799 64.992195 74.547195 83.501595 89.361992 98.079796 104.41339 108.58119 118.17259">valor monétario </tspan></text>
<text
               id="text340"
               style="font-variant:normal;font-weight:normal;font-size:18.19999886px;font-family:Calibri;-inkscape-font-specification:Calibri;writing-mode:lr-tb;fill:#ffffff;fill-opacity:1;fill-rule:nonzero;stroke:none"
               transform="translate(761,352.87158)"><tspan
                 id="tspan338"
                 y="0"
                 x="0 8.5539999 14.632799 20.729799 29.775198 33.942997 42.660797 52.215797 61.807198 65.920395 74.638199 84.229599">atrelado ao </tspan></text>
<text
               id="text344"
               style="font-variant:normal;font-weight:normal;font-size:18.19999886px;font-family:Calibri;-inkscape-font-specification:Calibri;writing-mode:lr-tb;fill:#ffffff;fill-opacity:1;fill-rule:nonzero;stroke:none"
               transform="translate(761,375.07312)"><tspan
                 id="tspan342"
                 y="0"
                 x="0 6.0787997 12.048399 20.766199 30.321198 39.038998 43.206799 52.761799 62.353195 66.4664 76.021393 85.612793 92.728996">trabalho dos </tspan></text>
<text
               id="text348"
               style="font-variant:normal;font-weight:normal;font-size:18.19999886px;font-family:Calibri;-inkscape-font-specification:Calibri;writing-mode:lr-tb;fill:#ffffff;fill-opacity:1;fill-rule:nonzero;stroke:none"
               transform="translate(761,397.27466)"><tspan
                 id="tspan346"
                 y="0"
                 x="0 9.5549994 18.527599 26.662998 33.779198 37.892399 45.008598 54.053997 60.023598 68.741394 72.854599 82.409592 91.454994 95.568192 105.43259 114.64179">devs será de R$ </tspan></text>
<text
               id="text352"
               style="font-variant:normal;font-weight:normal;font-size:18.19999886px;font-family:Calibri;-inkscape-font-specification:Calibri;writing-mode:lr-tb;fill:#ffffff;fill-opacity:1;fill-rule:nonzero;stroke:none"
               transform="translate(761,419.4762)"><tspan
                 id="tspan350"
                 y="0"
                 x="0 9.2091999 18.4184 23.004799 32.213997 41.423199 50.632397 55.164196 64.373398 73.582596">53.784,00.</tspan></text>
</g></g></g></g></g></svg>