<?xml version="1.0" encoding="UTF-8" standalone="no"?>
<svg
   xmlns:dc="http://purl.org/dc/elements/1.1/"
   xmlns:cc="http://creativecommons.org/ns#"
   xmlns:rdf="http://www.w3.org/1999/02/22-rdf-syntax-ns#"
   xmlns:svg="http://www.w3.org/2000/svg"
   xmlns="http://www.w3.org/2000/svg"
   viewBox="0 0 1122.6667 793.33331"
   height="793.33331"
   width="1122.6667"
   xml:space="preserve"
   id="svg2"
   version="1.1"><metadata
     id="metadata8"><rdf:RDF><cc:Work
         rdf:about=""><dc:format>image/svg+xml</dc:format><dc:type
           rdf:resource="http://purl.org/dc/dcmitype/StillImage" /></cc:Work></rdf:RDF></metadata><defs
     id="defs6"><clipPath
       id="clipPath20"
       clipPathUnits="userSpaceOnUse"><path
         id="path18"
         d="M -2,-2 H 888 V 388 H -2 Z" /></clipPath></defs><g
     transform="matrix(1.3333333,0,0,-1.3333333,0,793.33333)"
     id="g10"><g
       transform="matrix(1,0,0,-1,0,595)"
       id="g12"><g
         transform="matrix(0.75,0,0,0.75,88.750002,54)"
         id="g14"><g
           clip-path="url(#clipPath20)"
           id="g16"><path
             id="path22"
             style="fill:#e06666;fill-opacity:1;fill-rule:nonzero;stroke:none"
             d="M -1,-1 H 887 V 29 H -1 Z" /><path
             id="path24"
             style="fill:#ff9900;fill-opacity:1;fill-rule:nonzero;stroke:none"
             d="M -1,28 H 887 V 58 H -1 Z" /><path
             id="path26"
             style="fill:#4a86e8;fill-opacity:1;fill-rule:nonzero;stroke:none"
             d="M -1,57 H 887 V 87 H -1 Z" /><path
             id="path28"
             style="fill:#93c47d;fill-opacity:1;fill-rule:nonzero;stroke:none"
             d="M -1,86 H 887 V 387 H -1 Z" /><g
             id="g30"><path
               id="path32"
               style="fill:#000000;fill-opacity:0.14901961;fill-rule:nonzero;stroke:none"
               d="m -1,0 v 0 h -1 v -1 h 1 z m 0,-1 v 0 -1 h 1 v 1 z m 0,30 v 0 h -1 v -1 h 1 z m 0,29 v 0 h -1 v -1 h 1 z m 0,29 v 0 h -1 v -1 h 1 z m 0,300 v 0 h -1 v -1 h 1 z M 100,-1 v 0 -1 h 1 v 1 z m 131,0 v 0 -1 h 1 v 1 z m 131,0 v 0 -1 h 1 v 1 z m 131,0 v 0 -1 h 1 v 1 z M 364,386 v 0 h 128 v 1 H 364 Z M 624,-1 v 0 -1 h 1 v 1 z m 131,0 v 0 -1 h 1 v 1 z m 131,0 v 0 -1 h 1 v 1 z M -1,388 v 0 -1 h 1 v 1 z m 101,0 v 0 -1 h 1 v 1 z m 131,0 v 0 -1 h 1 v 1 z m 131,0 v 0 -1 h 1 v 1 z m 131,0 v 0 -1 h 1 v 1 z m 131,0 v 0 -1 h 1 v 1 z m 131,0 v 0 -1 h 1 v 1 z m 131,0 v 0 -1 h 1 v 1 z M 888,0 v 0 h -1 v -1 h 1 z m 0,29 v 0 h -1 v -1 h 1 z m 0,29 v 0 h -1 v -1 h 1 z m 0,29 v 0 h -1 v -1 h 1 z m 0,300 v 0 h -1 v -1 h 1 z" /></g><path
             id="path34"
             style="fill:none;stroke:#ffffff;stroke-width:3;stroke-linecap:butt;stroke-linejoin:miter;stroke-miterlimit:10;stroke-dasharray:none;stroke-opacity:1"
             d="M -0.5,-2 V 388 M 100.5,56 V 388 M 231.5,56 V 388 M -2,386.5 H 364 M 362.5,56 V 388 M 493.5,56 V 388 M 624.5,27 V 388 M 755.5,56 V 388 M -2,-0.5 h 890 m -890,29 h 890 m -890,29 h 890 m -890,29 h 890 m -396,300 H 888 M 886.5,-2 v 390" /><text
             id="text38"
             style="font-variant:normal;font-weight:normal;font-size:18.19999886px;font-family:Calibri;-inkscape-font-specification:Calibri;writing-mode:lr-tb;fill:#ffffff;fill-opacity:1;fill-rule:nonzero;stroke:none"
             transform="translate(393,19.453125)"><tspan
               id="tspan36"
               y="0"
               x="0 9.2091999 25.388998 34.598198 45.936798 50.049995 59.604996 68.650398 72.763596 84.429794 91.545998">5W2H de Uso</tspan></text>
<text
             id="text42"
             style="font-variant:normal;font-weight:normal;font-size:18.19999886px;font-family:Calibri;-inkscape-font-specification:Calibri;writing-mode:lr-tb;fill:#ffffff;fill-opacity:1;fill-rule:nonzero;stroke:none"
             transform="translate(300,48.453125)"><tspan
               id="tspan40"
               y="0"
               x="0 9.2091999">5W</tspan></text>
<text
             id="text46"
             style="font-variant:normal;font-weight:normal;font-size:18.19999886px;font-family:Calibri;-inkscape-font-specification:Calibri;writing-mode:lr-tb;fill:#ffffff;fill-opacity:1;fill-rule:nonzero;stroke:none"
             transform="translate(746,48.453125)"><tspan
               id="tspan44"
               y="0"
               x="0 9.2091999">2H</tspan></text>
<text
             id="text50"
             style="font-variant:normal;font-weight:normal;font-size:18.19999886px;font-family:Calibri;-inkscape-font-specification:Calibri;writing-mode:lr-tb;fill:#ffffff;fill-opacity:1;fill-rule:nonzero;stroke:none"
             transform="translate(24,77.453125)"><tspan
               id="tspan48"
               y="0"
               x="0 12.048399 16.161598 25.716599 35.271599 44.316998">O quê?</tspan></text>
<text
             id="text54"
             style="font-variant:normal;font-weight:normal;font-size:18.19999886px;font-family:Calibri;-inkscape-font-specification:Calibri;writing-mode:lr-tb;fill:#ffffff;fill-opacity:1;fill-rule:nonzero;stroke:none"
             transform="translate(134,77.453125)"><tspan
               id="tspan52"
               y="0"
               x="0 9.0271997 18.618599 24.952198 29.065399 38.620399 48.175396 57.220798">Por quê?</tspan></text>
<text
             id="text58"
             style="font-variant:normal;font-weight:normal;font-size:18.19999886px;font-family:Calibri;-inkscape-font-specification:Calibri;writing-mode:lr-tb;fill:#ffffff;fill-opacity:1;fill-rule:nonzero;stroke:none"
             transform="translate(273,77.453125)"><tspan
               id="tspan56"
               y="0"
               x="0 12.048399 21.603399 31.158398 40.203796">Onde?</tspan></text>
<text
             id="text62"
             style="font-variant:normal;font-weight:normal;font-size:18.19999886px;font-family:Calibri;-inkscape-font-specification:Calibri;writing-mode:lr-tb;fill:#ffffff;fill-opacity:1;fill-rule:nonzero;stroke:none"
             transform="translate(402,77.453125)"><tspan
               id="tspan60"
               y="0"
               x="0 12.230399 21.785398 30.830799 45.354397">Quem?</tspan></text>
<text
             id="text66"
             style="font-variant:normal;font-weight:normal;font-size:18.19999886px;font-family:Calibri;-inkscape-font-specification:Calibri;writing-mode:lr-tb;fill:#ffffff;fill-opacity:1;fill-rule:nonzero;stroke:none"
             transform="translate(526,77.453125)"><tspan
               id="tspan64"
               y="0"
               x="0 12.230399 21.785398 30.503199 40.058197 49.613197 59.204597">Quando?</tspan></text>
<text
             id="text70"
             style="font-variant:normal;font-weight:normal;font-size:18.19999886px;font-family:Calibri;-inkscape-font-specification:Calibri;writing-mode:lr-tb;fill:#ffffff;fill-opacity:1;fill-rule:nonzero;stroke:none"
             transform="translate(665,77.453125)"><tspan
               id="tspan68"
               y="0"
               x="0 9.7005997 19.292 33.815598 43.406998">Como?</tspan></text>
<text
             id="text74"
             style="font-variant:normal;font-weight:normal;font-size:18.19999886px;font-family:Calibri;-inkscape-font-specification:Calibri;writing-mode:lr-tb;fill:#ffffff;fill-opacity:1;fill-rule:nonzero;stroke:none"
             transform="translate(768,77.453125)"><tspan
               id="tspan72"
               y="0"
               x="0 12.230399 21.785398 30.503199 39.894398 45.809399 55.400799 59.513996 67.194397 76.749397 83.665398 89.525795 98.243591">Quanto custa?</tspan></text>
<text
             id="text78"
             style="font-variant:normal;font-weight:normal;font-size:18.19999886px;font-family:Calibri;-inkscape-font-specification:Calibri;writing-mode:lr-tb;fill:#ffffff;fill-opacity:1;fill-rule:nonzero;stroke:none"
             transform="translate(5,108.65466)"><tspan
               id="tspan76"
               y="0"
               x="0 10.519599 18.199999 27.245398 34.361599 41.477798 50.195599 56.529198">Acessar </tspan></text>
<text
             id="text82"
             style="font-variant:normal;font-weight:normal;font-size:18.19999886px;font-family:Calibri;-inkscape-font-specification:Calibri;writing-mode:lr-tb;fill:#ffffff;fill-opacity:1;fill-rule:nonzero;stroke:none"
             transform="translate(5,130.8562)"><tspan
               id="tspan80"
               y="0"
               x="0 9.5549994 24.078598 32.796398">uma </tspan></text>
<text
             id="text86"
             style="font-variant:normal;font-weight:normal;font-size:18.19999886px;font-family:Calibri;-inkscape-font-specification:Calibri;writing-mode:lr-tb;fill:#ffffff;fill-opacity:1;fill-rule:nonzero;stroke:none"
             transform="translate(5,153.05774)"><tspan
               id="tspan84"
               y="0"
               x="0 9.5549994 13.722799 22.276798 28.137199 36.763996 41.950996 51.542397 57.875996 72.399597 81.117393">plataforma </tspan></text>
<text
             id="text90"
             style="font-variant:normal;font-weight:normal;font-size:18.19999886px;font-family:Calibri;-inkscape-font-specification:Calibri;writing-mode:lr-tb;fill:#ffffff;fill-opacity:1;fill-rule:nonzero;stroke:none"
             transform="translate(5,175.25928)"><tspan
               id="tspan88"
               y="0"
               x="0 9.5549994 19.109999 28.155399 32.268597 37.455597 47.046997 53.380596 62.935596 71.980995 79.661392 88.706795">que fornece </tspan></text>
<text
             id="text94"
             style="font-variant:normal;font-weight:normal;font-size:18.19999886px;font-family:Calibri;-inkscape-font-specification:Calibri;writing-mode:lr-tb;fill:#ffffff;fill-opacity:1;fill-rule:nonzero;stroke:none"
             transform="translate(5,197.46082)"><tspan
               id="tspan92"
               y="0"
               x="0 6.0969996 15.142399 22.8228 31.868198 36.035999 41.896397 50.614197 57.730396 61.843597 71.398598 80.443993">receitas de </tspan></text>
<text
             id="text98"
             style="font-variant:normal;font-weight:normal;font-size:18.19999886px;font-family:Calibri;-inkscape-font-specification:Calibri;writing-mode:lr-tb;fill:#ffffff;fill-opacity:1;fill-rule:nonzero;stroke:none"
             transform="translate(5,219.66235)"><tspan
               id="tspan96"
               y="0"
               x="0 9.5549994 18.600399 28.155399 32.323196 41.878197 50.595997 57.712196">bebidas.</tspan></text>
<text
             id="text102"
             style="font-variant:normal;font-weight:normal;font-size:18.19999886px;font-family:Calibri;-inkscape-font-specification:Calibri;writing-mode:lr-tb;fill:#ffffff;fill-opacity:1;fill-rule:nonzero;stroke:none"
             transform="translate(106,108.65466)"><tspan
               id="tspan100"
               y="0"
               x="0 9.0089998 17.726799 23.696398 32.4142 36.527397 45.245197 54.800198 60.897198 69.942596 79.497597 89.052597 98.097992 104.43159 108.54479 117.2626">Para aprender a </tspan></text>
<text
             id="text106"
             style="font-variant:normal;font-weight:normal;font-size:18.19999886px;font-family:Calibri;-inkscape-font-specification:Calibri;writing-mode:lr-tb;fill:#ffffff;fill-opacity:1;fill-rule:nonzero;stroke:none"
             transform="translate(106,130.8562)"><tspan
               id="tspan104"
               y="0"
               x="0 6.0969996 15.142399 23.860199 28.027998 32.195797 39.093597 47.811398 54.144997 58.258198 66.975998">realizar a </tspan></text>
<text
             id="text110"
             style="font-variant:normal;font-weight:normal;font-size:18.19999886px;font-family:Calibri;-inkscape-font-specification:Calibri;writing-mode:lr-tb;fill:#ffffff;fill-opacity:1;fill-rule:nonzero;stroke:none"
             transform="translate(106,153.05774)"><tspan
               id="tspan108"
               y="0"
               x="0 7.6803994 14.013999 18.181799 26.899599 34.434399 43.152199 52.743599 56.856796 66.411797 72.745399 76.913193 86.468193 94.567192 101.6834 105.79659 114.842">criação drinks e </tspan></text>
<text
             id="text114"
             style="font-variant:normal;font-weight:normal;font-size:18.19999886px;font-family:Calibri;-inkscape-font-specification:Calibri;writing-mode:lr-tb;fill:#ffffff;fill-opacity:1;fill-rule:nonzero;stroke:none"
             transform="translate(106,175.25928)"><tspan
               id="tspan112"
               y="0"
               x="0 9.5549994 18.600399 28.155399 32.323196 41.878197 50.595997 57.712196 61.825397 71.380394 80.425797">bebidas de </tspan></text>
<text
             id="text118"
             style="font-variant:normal;font-weight:normal;font-size:18.19999886px;font-family:Calibri;-inkscape-font-specification:Calibri;writing-mode:lr-tb;fill:#ffffff;fill-opacity:1;fill-rule:nonzero;stroke:none"
             transform="translate(106,197.46082)"><tspan
               id="tspan116"
               y="0"
               x="0 14.5236 23.241398 32.796398 41.841797 46.009598 51.979198 60.696995">maneira </tspan></text>
<text
             id="text122"
             style="font-variant:normal;font-weight:normal;font-size:18.19999886px;font-family:Calibri;-inkscape-font-specification:Calibri;writing-mode:lr-tb;fill:#ffffff;fill-opacity:1;fill-rule:nonzero;stroke:none"
             transform="translate(106,219.66235)"><tspan
               id="tspan120"
               y="0"
               x="0 7.5347996 17.1262 23.459799 29.556799 38.511196 44.371597 53.089397">correta.</tspan></text>
<text
             id="text126"
             style="font-variant:normal;font-weight:normal;font-size:18.19999886px;font-family:Calibri;-inkscape-font-specification:Calibri;writing-mode:lr-tb;fill:#ffffff;fill-opacity:1;fill-rule:nonzero;stroke:none"
             transform="translate(237,108.65466)"><tspan
               id="tspan124"
               y="0"
               x="0 8.8815994 23.405199 27.518398 37.073399 51.596996 60.314796">Em uma </tspan></text>
<text
             id="text130"
             style="font-variant:normal;font-weight:normal;font-size:18.19999886px;font-family:Calibri;-inkscape-font-specification:Calibri;writing-mode:lr-tb;fill:#ffffff;fill-opacity:1;fill-rule:nonzero;stroke:none"
             transform="translate(237,130.8562)"><tspan
               id="tspan128"
               y="0"
               x="0 9.5549994 13.722799 22.276798 28.137199 36.763996 41.950996 51.542397 57.875996 72.399597 81.117393 85.230598 94.785591 103.83099">plataforma de </tspan></text>
<text
             id="text134"
             style="font-variant:normal;font-weight:normal;font-size:18.19999886px;font-family:Calibri;-inkscape-font-specification:Calibri;writing-mode:lr-tb;fill:#ffffff;fill-opacity:1;fill-rule:nonzero;stroke:none"
             transform="translate(237,153.05774)"><tspan
               id="tspan132"
               y="0"
               x="0 5.2051997 13.922999 21.603399 25.771198 29.938999 34.052197 43.607197 50.723396 60.314796 64.427994 73.982994 82.700798">fácil uso na </tspan></text>
<text
             id="text138"
             style="font-variant:normal;font-weight:normal;font-size:18.19999886px;font-family:Calibri;-inkscape-font-specification:Calibri;writing-mode:lr-tb;fill:#ffffff;fill-opacity:1;fill-rule:nonzero;stroke:none"
             transform="translate(237,175.25928)"><tspan
               id="tspan136"
               y="0"
               x="0 4.1677999 13.558999 19.455799 28.501198 34.834797 44.389797 53.344196 59.422997">internet.</tspan></text>
<text
             id="text142"
             style="font-variant:normal;font-weight:normal;font-size:18.19999886px;font-family:Calibri;-inkscape-font-specification:Calibri;writing-mode:lr-tb;fill:#ffffff;fill-opacity:1;fill-rule:nonzero;stroke:none"
             transform="translate(367,107.65466)"><tspan
               id="tspan140"
               y="0"
               x="0 5.7875996 15.306199 23.350599 32.396 41.950996 49.067196 55.473598 65.993195 75.548195 85.103195 89.270996 95.185997 104.7774 111.89359">Jovens/Adultos </tspan></text>
<text
             id="text146"
             style="font-variant:normal;font-weight:normal;font-size:18.19999886px;font-family:Calibri;-inkscape-font-specification:Calibri;writing-mode:lr-tb;fill:#ffffff;fill-opacity:1;fill-rule:nonzero;stroke:none"
             transform="translate(367,129.8562)"><tspan
               id="tspan144"
               y="0"
               x="0 9.5549994 19.109999 28.155399 32.268597 39.803398 49.394798 58.949799 66.065994 75.657394 90.180992 99.226395 113.74999">que consomem </tspan></text>
<text
             id="text150"
             style="font-variant:normal;font-weight:normal;font-size:18.19999886px;font-family:Calibri;-inkscape-font-specification:Calibri;writing-mode:lr-tb;fill:#ffffff;fill-opacity:1;fill-rule:nonzero;stroke:none"
             transform="translate(367,152.05774)"><tspan
               id="tspan148"
               y="0"
               x="0 9.5549994 18.600399 28.155399 32.323196 41.878197 50.595997 57.712196">bebidas </tspan></text>
<text
             id="text154"
             style="font-variant:normal;font-weight:normal;font-size:18.19999886px;font-family:Calibri;-inkscape-font-specification:Calibri;writing-mode:lr-tb;fill:#ffffff;fill-opacity:1;fill-rule:nonzero;stroke:none"
             transform="translate(367,174.25928)"><tspan
               id="tspan152"
               y="0"
               x="0 8.7177992 12.885599 20.420399 30.011799 39.603199 43.770996 47.938797 55.473598 64.191399 71.307594 75.420799 84.466194">alcoolicas e </tspan></text>
<text
             id="text158"
             style="font-variant:normal;font-weight:normal;font-size:18.19999886px;font-family:Calibri;-inkscape-font-specification:Calibri;writing-mode:lr-tb;fill:#ffffff;fill-opacity:1;fill-rule:nonzero;stroke:none"
             transform="translate(367,196.46082)"><tspan
               id="tspan156"
               y="0"
               x="0 9.5549994 18.272799 24.6064 39.129997 47.847797 57.402798 64.518997">barmans </tspan></text>
<text
             id="text162"
             style="font-variant:normal;font-weight:normal;font-size:18.19999886px;font-family:Calibri;-inkscape-font-specification:Calibri;writing-mode:lr-tb;fill:#ffffff;fill-opacity:1;fill-rule:nonzero;stroke:none"
             transform="translate(367,218.66235)"><tspan
               id="tspan160"
               y="0"
               x="0 4.1677999 13.722799 17.890598 25.570999 29.738798 38.456596 47.847797 53.744598 62.789997 69.906197">iniciantes.</tspan></text>
<text
             id="text166"
             style="font-variant:normal;font-weight:normal;font-size:18.19999886px;font-family:Calibri;-inkscape-font-specification:Calibri;writing-mode:lr-tb;fill:#ffffff;fill-opacity:1;fill-rule:nonzero;stroke:none"
             transform="translate(499,108.65466)"><tspan
               id="tspan164"
               y="0"
               x="0 8.8815994 23.405199 27.518398 36.490997 44.535397 53.580795 62.971996 68.886993 78.478394 85.594597">Em eventos </tspan></text>
<text
             id="text170"
             style="font-variant:normal;font-weight:normal;font-size:18.19999886px;font-family:Calibri;-inkscape-font-specification:Calibri;writing-mode:lr-tb;fill:#ffffff;fill-opacity:1;fill-rule:nonzero;stroke:none"
             transform="translate(499,130.8562)"><tspan
               id="tspan168"
               y="0"
               x="0 5.2051997 13.922999 28.446598 32.614399 36.7822 40.949997 49.667797 55.764797 64.810196 71.926399 76.458199">familiares, </tspan></text>
<text
             id="text174"
             style="font-variant:normal;font-weight:normal;font-size:18.19999886px;font-family:Calibri;-inkscape-font-specification:Calibri;writing-mode:lr-tb;fill:#ffffff;fill-opacity:1;fill-rule:nonzero;stroke:none"
             transform="translate(499,153.05774)"><tspan
               id="tspan172"
               y="0"
               x="0 9.0453997 18.600399 26.135199 35.726597 45.117798 51.196598 57.238998 66.830399 73.946594">encontros </tspan></text>
<text
             id="text178"
             style="font-variant:normal;font-weight:normal;font-size:18.19999886px;font-family:Calibri;-inkscape-font-specification:Calibri;writing-mode:lr-tb;fill:#ffffff;fill-opacity:1;fill-rule:nonzero;stroke:none"
             transform="translate(499,175.25928)"><tspan
               id="tspan176"
               y="0"
               x="0 7.5347996 16.2526 23.368799 32.923798 41.641598 45.809399 52.925598 57.038795 64.573593 74.164993 88.688599">casuais com </tspan></text>
<text
             id="text182"
             style="font-variant:normal;font-weight:normal;font-size:18.19999886px;font-family:Calibri;-inkscape-font-specification:Calibri;writing-mode:lr-tb;fill:#ffffff;fill-opacity:1;fill-rule:nonzero;stroke:none"
             transform="translate(499,197.46082)"><tspan
               id="tspan180"
               y="0"
               x="0 8.7177992 23.241398 27.409199 35.853996 45.445396 52.561596 56.674797 66.266197 75.821198 79.934395 88.979797 103.5034">amigos ou em </tspan></text>
<text
             id="text186"
             style="font-variant:normal;font-weight:normal;font-size:18.19999886px;font-family:Calibri;-inkscape-font-specification:Calibri;writing-mode:lr-tb;fill:#ffffff;fill-opacity:1;fill-rule:nonzero;stroke:none"
             transform="translate(499,219.66235)"><tspan
               id="tspan184"
               y="0"
               x="0 14.5236 24.114998 38.638599 47.683998 57.075195 62.990196 72.581596 76.694794 86.249794 95.295197">momento de </tspan></text>
<text
             id="text190"
             style="font-variant:normal;font-weight:normal;font-size:18.19999886px;font-family:Calibri;-inkscape-font-specification:Calibri;writing-mode:lr-tb;fill:#ffffff;fill-opacity:1;fill-rule:nonzero;stroke:none"
             transform="translate(499,241.86389)"><tspan
               id="tspan188"
               y="0"
               x="0 7.5347996 17.1262 26.681198 33.797398 43.352398 47.520199 53.380596 62.098396 66.211594 75.766594 84.484398 90.453995 99.171791">consulta para </tspan></text>
<text
             id="text194"
             style="font-variant:normal;font-weight:normal;font-size:18.19999886px;font-family:Calibri;-inkscape-font-specification:Calibri;writing-mode:lr-tb;fill:#ffffff;fill-opacity:1;fill-rule:nonzero;stroke:none"
             transform="translate(499,264.06543)"><tspan
               id="tspan192"
               y="0"
               x="0 9.0453997 15.961399 22.040199 31.595198 41.150196 50.741596 54.854797 61.970997 71.562393 81.117393 87.214394 96.259796">estudo sobre </tspan></text>
<text
             id="text198"
             style="font-variant:normal;font-weight:normal;font-size:18.19999886px;font-family:Calibri;-inkscape-font-specification:Calibri;writing-mode:lr-tb;fill:#ffffff;fill-opacity:1;fill-rule:nonzero;stroke:none"
             transform="translate(499,286.26697)"><tspan
               id="tspan196"
               y="0"
               x="0 7.5347996 17.1262 26.681198 36.236198 45.190598 51.087399 60.132797 64.300598 73.018394 79.351997 83.519798 92.237595 96.350792 105.39619">coquetelaria e </tspan></text>
<text
             id="text202"
             style="font-variant:normal;font-weight:normal;font-size:18.19999886px;font-family:Calibri;-inkscape-font-specification:Calibri;writing-mode:lr-tb;fill:#ffffff;fill-opacity:1;fill-rule:nonzero;stroke:none"
             transform="translate(499,308.4685)"><tspan
               id="tspan200"
               y="0"
               x="0 14.5236 18.691399 26.098799 35.690197 39.857998 49.449398 58.003395 62.171196 70.888992">mixologia.</tspan></text>
<text
             id="text206"
             style="font-variant:normal;font-weight:normal;font-size:18.19999886px;font-family:Calibri;-inkscape-font-specification:Calibri;writing-mode:lr-tb;fill:#ffffff;fill-opacity:1;fill-rule:nonzero;stroke:none"
             transform="translate(630,108.65466)"><tspan
               id="tspan204"
               y="0"
               x="0 10.064599 16.143398 22.112999 30.539598 38.584 47.629398 54.745598 58.858795 68.413795 77.459198 81.572395 91.127396 105.65099">Através de um </tspan></text>
<text
             id="text210"
             style="font-variant:normal;font-weight:normal;font-size:18.19999886px;font-family:Calibri;-inkscape-font-specification:Calibri;writing-mode:lr-tb;fill:#ffffff;fill-opacity:1;fill-rule:nonzero;stroke:none"
             transform="translate(630,130.8562)"><tspan
               id="tspan208"
               y="0"
               x="0 9.5549994 17.9816 26.025999 35.0714 43.297798 52.015598 61.570595 71.161995 77.495598 81.608795 90.654198 105.1778">navegador em </tspan></text>
<text
             id="text214"
             style="font-variant:normal;font-weight:normal;font-size:18.19999886px;font-family:Calibri;-inkscape-font-specification:Calibri;writing-mode:lr-tb;fill:#ffffff;fill-opacity:1;fill-rule:nonzero;stroke:none"
             transform="translate(630,153.05774)"><tspan
               id="tspan212"
               y="0"
               x="0 9.5549994 24.078598 28.191799 37.746799 46.792198 53.908398 63.463398 73.054794 80.170998 84.338799 90.417595 94.585396 102.62979 112.22119">um despositivo </tspan></text>
<text
             id="text218"
             style="font-variant:normal;font-weight:normal;font-size:18.19999886px;font-family:Calibri;-inkscape-font-specification:Calibri;writing-mode:lr-tb;fill:#ffffff;fill-opacity:1;fill-rule:nonzero;stroke:none"
             transform="translate(630,175.25928)"><tspan
               id="tspan216"
               y="0"
               x="0 14.5236 24.114998 33.669998 37.837799 42.005596 51.050999 55.164196 64.7556 74.310593">mobile ou </tspan></text>
<text
             id="text222"
             style="font-variant:normal;font-weight:normal;font-size:18.19999886px;font-family:Calibri;-inkscape-font-specification:Calibri;writing-mode:lr-tb;fill:#ffffff;fill-opacity:1;fill-rule:nonzero;stroke:none"
             transform="translate(630,197.46082)"><tspan
               id="tspan220"
               y="0"
               x="0 9.5549994 18.600399 25.716599 33.906597 39.821598 49.412998 58.967999">desktop.</tspan></text>
<text
             id="text226"
             style="font-variant:normal;font-weight:normal;font-size:18.19999886px;font-family:Calibri;-inkscape-font-specification:Calibri;writing-mode:lr-tb;fill:#ffffff;fill-opacity:1;fill-rule:nonzero;stroke:none"
             transform="translate(761,108.65466)"><tspan
               id="tspan224"
               y="0"
               x="0 11.193 20.2384 24.351599 33.906597 41.022797 50.614197 54.727398 63.281395 69.250999 77.804993 83.883797 93.438797 97.606598 103.52159 113.11299">De uso gratuito </tspan></text>
<text
             id="text230"
             style="font-variant:normal;font-weight:normal;font-size:18.19999886px;font-family:Calibri;-inkscape-font-specification:Calibri;writing-mode:lr-tb;fill:#ffffff;fill-opacity:1;fill-rule:nonzero;stroke:none"
             transform="translate(761,130.8562)"><tspan
               id="tspan228"
               y="0"
               x="0 9.5549994 18.272799 24.242399 32.960197 37.073399 46.664799 50.777996 60.332996 69.887993 79.442993 83.610794 87.778595 95.313393 104.90479">para o público.</tspan></text>
</g></g></g></g></svg>